<svg xmlns="http://www.w3.org/2000/svg" xmlns:xlink="http://www.w3.org/1999/xlink" version="1.1" x="0px" y="0px" viewBox="0 0 100 100" enable-background="new 0 0 100 100" xml:space="preserve"><g><path d="M14.012,81.463c10.867-13.74,16.577-30.86,16.122-48.372h-1.459v-4.01h23.536v4.01h-1.459   c-0.45,17.512,5.254,34.632,16.127,48.372c0.742,0.942,1.877,1.483,3.068,1.483h2.025v10.125H8.913V82.946h2.026   C12.136,82.946,13.27,82.405,14.012,81.463z"></path></g><g><path d="M75.24,93.071V79.68h-5.293c-0.193,0-0.387-0.087-0.512-0.25c-5.637-7.119-9.855-15.249-12.455-23.952   c0.604-3.74,0.859-7.518,0.754-11.296h-1.184v-3.267h19.182v3.267h-1.186C74.18,58.459,78.83,72.404,87.695,83.601   c0.598,0.773,1.521,1.216,2.5,1.216h1.641v8.255H75.24z"></path></g><g><path d="M41.068,19.251c0.967-2.002,2.844-3.424,5.046-3.792c-3.555-0.617-6.934,1.776-7.539,5.33   c-0.305,1.771,0.132,3.579,1.205,5.019c0.268,0.356,0.187,0.862-0.162,1.123c-0.356,0.269-0.855,0.187-1.123-0.161   c-2.481-3.323-2.07-7.98,0.959-10.817c-0.155-0.878-0.124-1.796,0.088-2.669c0.855-3.497,4.396-5.648,7.899-4.787   c3.536,0.859,7.264,0.25,10.336-1.709c-0.566,5.574-3.658,10.573-8.385,13.565C46.71,22.057,43.202,21.589,41.068,19.251z"></path></g><g><path d="M66.768,31.075c0.967-2,2.85-3.414,5.043-3.782c-3.553-0.612-6.932,1.777-7.543,5.33c-0.305,1.771,0.131,3.585,1.209,5.02   c0.262,0.349,0.193,0.853-0.156,1.122c-0.361,0.26-0.859,0.192-1.121-0.17c-2.488-3.316-2.076-7.979,0.947-10.804   c-0.143-0.892-0.117-1.796,0.094-2.669c0.859-3.502,4.395-5.653,7.893-4.801c3.541,0.867,7.275,0.25,10.344-1.7   c-0.568,5.566-3.662,10.573-8.393,13.571C72.41,33.881,68.904,33.413,66.768,31.075z"></path></g></svg>