<svg version="1.1" title="Scroll to Energy" id="scrollToEnergy"  xmlns="http://www.w3.org/2000/svg" xmlns:xlink="http://www.w3.org/1999/xlink" x="0px" y="0px" viewBox="0 0 85.658 100" enable-background="new 0 0 85.658 100" xml:space="preserve"><path fill="#010101" d="M83.53,90.847h-7.667L75.86,88.66h7.67c1.174,0,2.128-0.951,2.128-2.124c0-1.174-0.954-2.126-2.128-2.126
	h-7.67v-5.389h-0.593c-4.48,0-7.83,0.676-10.235,2.069c-1.946,1.124-3.309,2.719-4.269,4.998H32.988
	c-2.64,0-3.982-0.551-4.643-1.013c-0.537-0.374-0.798-0.814-0.798-1.347c0-1.286,1.729-3.184,5.44-3.184h14.908l0.59-0.014v-0.019
	c3.554-0.148,6.578-1.031,8.776-2.564c2.441-1.706,3.787-4.1,3.787-6.74c0-4.995-5.102-10.163-13.64-10.163
	c-5.958,0-9.864-2.837-10.393-4.877c-0.033-0.134-3.11-13.449,4.858-22.839c0.797,0.153,2.865,0.496,5.364,0.496
	c3.752,0,8.794-0.795,11.508-4.584c2.327-3.251,2.674-5.526,3.044-7.934c0.371-2.431,0.759-4.942,3.407-8.798
	C70.315,5.062,76.795,2.452,76.86,2.427l1.746-0.684l-1.822-0.44C76.727,1.291,71.288,0,64.206,0
	c-9.53,0-22.429,2.311-29.767,13.322c-2.618,3.929-3.217,7.786-1.781,11.458c1.025,2.625,2.845,4.447,3.768,5.305
	c-0.59,1.058-2.197,3.959-3.312,6.18l-0.765-0.732c0.242-1.413,0.881-6.936-2.792-11.522c-3.347-4.179-9.246-6.297-17.531-6.297
	c-3.081,0-6.532,0.299-10.26,0.889L0,18.882l1.585,0.827c0.085,0.044,8.519,4.481,10.082,8.236l0.093,0.225
	c1.715,4.118,2.847,6.84,7.961,9.391c1.944,0.971,4.027,1.463,6.192,1.463c1.896,0,3.251-0.384,3.637-0.507
	c0.416,0.017,1.323,0.14,1.715,0.59c0.1,0.115,0.229,0.315,0.176,0.71c-0.168,1.232-0.528,2.409-0.943,3.772
	c-0.901,2.948-2.022,6.62-1.611,12.739c0.008,2.875,1.95,5.807,5.329,8.047c3.548,2.353,8.234,3.649,13.192,3.649
	c3.71,0,5.44,1.9,5.44,3.185c0,0.533-0.261,0.973-0.796,1.346c-0.662,0.462-2.006,1.012-4.644,1.012H32.988
	c-8.539,0-13.641,5.166-13.641,10.162c0,2.641,1.345,5.034,3.79,6.74c2.432,1.698,5.839,2.597,9.852,2.597h27.783
	c0.959,2.246,2.326,3.815,4.278,4.92C67.443,99.341,70.788,100,75.273,100h0.59v-4.898h7.667c1.174,0,2.128-0.951,2.128-2.126
	S84.705,90.847,83.53,90.847z M42.413,18.389C45.751,9.335,55.814,5.188,64.009,3.925c-8.194,1.264-16.79,6.22-20.128,15.272
	C43.018,21.272,41.352,21.422,42.413,18.389z M25.357,30.444c-2.795-3.171-7.751-8.186-12.885-9.021
	c5.669,0.922,11.241,4.4,13.906,8.587C27.341,31.522,25.958,31.561,25.357,30.444z"></path></svg>