<svg xmlns="http://www.w3.org/2000/svg" xmlns:xlink="http://www.w3.org/1999/xlink" version="1.2" baseProfile="tiny" x="0px" y="0px" viewBox="0 0 100 125" xml:space="preserve"><path fill="#000000" d="M77.5,25c-7.81-7.81-12.19-12.189-20-20h-40c-5.523,0-10,4.477-10,10v70c0,5.523,4.477,10,10,10h50   c5.523,0,10-4.477,10-10v-5H95V40H77.5V25z M55,13.107L69.393,27.5H57.5c-1.378,0-2.5-1.122-2.5-2.5V13.107z M70,85   c0,1.378-1.122,2.5-2.5,2.5h-50c-1.378,0-2.5-1.122-2.5-2.5V15c0-1.379,1.122-2.5,2.5-2.5h30V25c0,5.523,4.477,10,10,10H70v5H27.5   v40H70V85z M90,45v30H32.5V45H90z"/><path fill="#000000" d="M45,70h5v-5h-5c-1.379,0-2.5-1.122-2.5-2.5v-5c0-1.378,1.121-2.5,2.5-2.5h5v-5h-5   c-4.136,0-7.5,3.364-7.5,7.5v5C37.5,66.636,40.864,70,45,70z"/><path fill="#000000" d="M67.5,63.75c0-3.446-2.804-6.25-6.25-6.25h-2.5c-0.689,0-1.25-0.561-1.25-1.25S58.061,55,58.75,55h8.75v-5   h-8.75c-3.446,0-6.25,2.804-6.25,6.25s2.804,6.25,6.25,6.25h2.5c0.689,0,1.25,0.561,1.25,1.25S61.939,65,61.25,65H52.5v5h8.75   C64.696,70,67.5,67.196,67.5,63.75z"/><polygon fill="#000000" points="81.802,70 85,60.406 85,50 80,50 80,59.594 78.198,65 76.802,65 75,59.597 75,50 70,50 70,60.408    73.198,70  "/><text x="0" y="115" fill="#000000" font-size="5px" font-weight="bold" font-family="'Helvetica Neue', Helvetica, Arial-Unicode, Arial, Sans-serif">Created by Arthur Shlain</text><text x="0" y="120" fill="#000000" font-size="5px" font-weight="bold" font-family="'Helvetica Neue', Helvetica, Arial-Unicode, Arial, Sans-serif">from the Noun Project</text></svg>