 <svg xmlns="http://www.w3.org/2000/svg" xmlns:xlink="http://www.w3.org/1999/xlink" version="1.1" x="0px" y="0px" viewBox="0 0 90 90" enable-background="new 0 0 90 90" xml:space="preserve">
                    <path fill-rule="evenodd" clip-rule="evenodd" d="M244.375-166.775c2.195-2.191,4.82-3.283,7.875-3.275  c3.094-0.002,5.735,1.089,7.925,3.275c2.191,2.195,3.282,4.82,3.275,7.875c0.007,3.055-1.084,5.68-3.275,7.875  c-2.189,2.186-4.831,3.277-7.925,3.275c-3.055,0.007-5.68-1.084-7.875-3.275c-2.19-2.195-3.282-4.82-3.275-7.875  C241.093-161.955,242.185-164.58,244.375-166.775z M252.25-163.35c-1.212,0.007-2.253,0.449-3.125,1.325  c-0.876,0.872-1.317,1.914-1.325,3.125c0.008,1.211,0.449,2.253,1.325,3.125c0.872,0.876,1.913,1.317,3.125,1.325  c1.24-0.002,2.298-0.444,3.175-1.325c0.876-0.872,1.318-1.914,1.325-3.125c-0.007-1.211-0.449-2.253-1.325-3.125  C254.548-162.906,253.49-163.348,252.25-163.35z M252.375-189l1.725-4.35h-46.25l1.726,4.35H252.375z M248.3-178.75l1.425-3.55  H212.25l1.4,3.55H248.3z M303-149.825c0.65-0.652,1.435-0.977,2.35-0.975l117.625,0.325l-26.8-26.8  c-0.652-0.656-0.977-1.448-0.975-2.375c-0.002-0.927,0.322-1.719,0.975-2.375c0.656-0.652,1.448-0.977,2.375-0.975  c0.928-0.002,1.719,0.323,2.375,0.975l32.55,32.55c0.247,0.249,0.447,0.515,0.601,0.8c0.15,0.286,0.259,0.585,0.325,0.9  c0.033,0.219,0.05,0.444,0.05,0.675c-0.001,0.463-0.085,0.888-0.25,1.275c-0.157,0.406-0.399,0.772-0.726,1.1l-32.55,32.55  c-0.658,0.65-1.45,0.976-2.375,0.975c-0.916,0.003-1.699-0.322-2.35-0.975c-0.661-0.658-0.994-1.45-1-2.375  c-0.002-0.922,0.323-1.714,0.975-2.375l26.851-26.85L305.35-144.1c-0.925-0.007-1.717-0.34-2.375-1  c-0.652-0.651-0.978-1.434-0.975-2.35C302.006-148.375,302.339-149.167,303-149.825z M9.808,61.484l-0.024-0.025  c-2.63-10.104-1.347-19.604,3.85-28.5v0.025c5.196-9.034,12.755-14.901,22.675-17.601l0.05-0.025  c7.893-2.021,15.451-1.671,22.676,1.05L56.208,5.782c-0.243-0.893-0.135-1.742,0.325-2.55c0.461-0.797,1.136-1.313,2.024-1.55  c0.894-0.244,1.743-0.136,2.55,0.325c0.797,0.46,1.313,1.136,1.551,2.025l5.149,19.25c0.243,0.893,0.135,1.743-0.325,2.55  c-0.46,0.796-1.135,1.313-2.024,1.55l-19.351,5.201c-0.893,0.243-1.742,0.135-2.55-0.325c-0.797-0.461-1.313-1.136-1.55-2.025  c-0.244-0.894-0.136-1.743,0.325-2.55c0.46-0.796,1.135-1.313,2.024-1.55l12.525-3.35c-6.012-2.304-12.303-2.612-18.875-0.925  l0.05-0.025c-8.146,2.233-14.354,7.067-18.625,14.5v0.025c-4.271,7.303-5.32,15.104-3.149,23.4l-0.025-0.024  c2.019,7.431,6.277,13.314,12.775,17.65l-0.025-0.025c0.434,0.279,0.867,0.521,1.3,0.725c0.08,0.038,0.163,0.08,0.25,0.125  c7.425,4.334,15.225,5.408,23.4,3.226c8.216-2.265,14.474-7.091,18.774-14.476v0.05c0.479-0.843,0.912-1.702,1.301-2.575v-0.025  c1.947-4.188,2.881-8.497,2.8-12.924c-0.013-0.928,0.304-1.729,0.95-2.4c0.635-0.667,1.41-1.009,2.324-1.025  c0.927-0.014,1.727,0.303,2.4,0.949c0.666,0.637,1.008,1.412,1.025,2.326c0.118,5.439-1.015,10.73-3.4,15.875v-0.025  c-0.479,1.061-1.012,2.102-1.6,3.126v0.05c-5.225,8.948-12.825,14.79-22.801,17.525h-0.024c-9.932,2.677-19.406,1.401-28.425-3.825  c-0.644-0.31-1.285-0.667-1.926-1.075l-0.024-0.05C17.431,77.67,12.256,70.52,9.808,61.484z M91.05-167.45  c0.225,0.126,0.434,0.285,0.625,0.475c0.301,0.302,0.534,0.636,0.7,1c0.154,0.347,0.246,0.722,0.275,1.125c0,0.083,0,0.167,0,0.25  v46c0.002,0.927-0.323,1.719-0.976,2.375c-0.656,0.652-1.447,0.977-2.375,0.975c-0.927,0.002-1.719-0.323-2.375-0.975  c-0.652-0.656-0.977-1.448-0.975-2.375v-37.925L5.925-76.95H45c0.927-0.002,1.719,0.323,2.375,0.975  c0.652,0.656,0.978,1.448,0.975,2.375c0.003,0.927-0.322,1.719-0.975,2.375c-0.656,0.652-1.448,0.977-2.375,0.975H-1  c-0.927,0.002-1.719-0.323-2.375-0.975c-0.652-0.656-0.977-1.448-0.975-2.375v-46c-0.002-0.927,0.323-1.719,0.975-2.375  c0.656-0.652,1.448-0.977,2.375-0.975c0.927-0.002,1.719,0.323,2.375,0.975c0.652,0.656,0.977,1.448,0.975,2.375v36.725  l78.825-78.375H43.3c-0.927,0.002-1.719-0.323-2.375-0.975c-0.652-0.656-0.977-1.448-0.975-2.375  c-0.002-0.927,0.323-1.719,0.975-2.375c0.656-0.652,1.448-0.977,2.375-0.975h46.05c0.444,0.007,0.853,0.091,1.226,0.25  C90.743-167.634,90.902-167.551,91.05-167.45z M75.3-241.7c-0.278-0.88-0.203-1.73,0.226-2.55c0.434-0.821,1.092-1.372,1.975-1.65  c0.88-0.279,1.729-0.204,2.55,0.225c0.821,0.435,1.371,1.093,1.65,1.975c1.509,4.775,4.2,9.042,8.075,12.8l0.05,0.025  c6.477,6.48,14.284,9.722,23.425,9.725c9.237,0,17.096-3.241,23.575-9.725h0.024c2.141-2.107,3.916-4.374,5.325-6.8l-6.899,1.85  c-0.895,0.244-1.745,0.135-2.551-0.325c-0.797-0.461-1.313-1.136-1.55-2.025c-0.244-0.893-0.136-1.743,0.325-2.55  c0.462-0.796,1.138-1.313,2.025-1.55l13.5-3.625c0.032-0.011,0.065-0.019,0.1-0.025c0.432-0.131,0.874-0.164,1.325-0.1  c0.173,0.028,0.348,0.07,0.524,0.125c0.214,0.067,0.414,0.15,0.601,0.25c0.032,0.017,0.066,0.034,0.1,0.05  c0.441,0.255,0.8,0.581,1.075,0.975c0.192,0.277,0.343,0.593,0.45,0.95c0.01,0.031,0.019,0.064,0.024,0.1  c0.008,0.026,0.016,0.051,0.025,0.075l4.65,15.225c0.27,0.883,0.187,1.733-0.25,2.55c-0.437,0.815-1.095,1.357-1.976,1.625  c-0.882,0.271-1.732,0.187-2.55-0.25c-0.814-0.437-1.356-1.096-1.625-1.975l-2.125-7c-1.593,2.554-3.525,4.954-5.8,7.2l-0.025,0.025  c-7.782,7.766-17.215,11.649-28.3,11.65c-10.993,0.003-20.385-3.889-28.175-11.675l0.05,0.025  C80.399-230.675,77.125-235.875,75.3-241.7z M78-284.025l2.15,7.05c1.595-2.563,3.52-4.988,5.774-7.275v-0.025  c7.786-7.782,17.244-11.673,28.375-11.675c10.981-0.002,20.365,3.881,28.15,11.65l0.024,0.025c4.741,4.64,7.999,9.848,9.775,15.625  c0.271,0.882,0.187,1.732-0.25,2.55c-0.427,0.822-1.076,1.373-1.95,1.65c-0.881,0.271-1.73,0.187-2.55-0.25  c-0.822-0.428-1.372-1.078-1.65-1.95c-1.487-4.746-4.188-9.029-8.1-12.85l-0.025-0.025c-6.476-6.481-14.284-9.722-23.425-9.725  c-9.257-0.001-17.124,3.232-23.6,9.7l-0.025,0.025c-2.091,2.128-3.841,4.403-5.25,6.825l6.875-1.85  c0.897-0.235,1.748-0.118,2.55,0.35c0.799,0.472,1.315,1.156,1.551,2.05c0.234,0.896,0.118,1.746-0.351,2.55  c-0.473,0.798-1.156,1.315-2.05,1.55l-13.65,3.65c-0.897,0.235-1.747,0.118-2.55-0.35c-0.799-0.472-1.315-1.155-1.55-2.05  c-0.016-0.059-0.032-0.117-0.05-0.175l-4.601-15.1c-0.27-0.883-0.187-1.733,0.25-2.55c0.437-0.815,1.095-1.357,1.976-1.625  c0.882-0.27,1.732-0.187,2.55,0.25C77.189-285.563,77.731-284.904,78-284.025z M203.475-204.35l1.7,4.3h51.55l1.7-4.3H203.475z   M195.425-206.475c-0.273-0.698-0.307-1.406-0.1-2.125c0.203-0.726,0.604-1.317,1.2-1.775c0.599-0.452,1.274-0.676,2.024-0.675h64.8  c0.751-0.001,1.426,0.223,2.025,0.675c0.597,0.458,0.996,1.049,1.2,1.775c0.206,0.719,0.173,1.427-0.101,2.125L262.2-195.65  c-0.049,0.144-0.107,0.286-0.175,0.425L257.9-184.75c-0.029,0.089-0.063,0.181-0.101,0.275l-2.274,5.725h5.675l17.75-43.425  c0.254-0.623,0.662-1.123,1.225-1.5c0.571-0.382,1.196-0.574,1.875-0.575h12.45c0.927-0.002,1.719,0.323,2.375,0.975  c0.652,0.656,0.978,1.448,0.975,2.375c0.003,0.927-0.322,1.719-0.975,2.375c-0.656,0.652-1.448,0.977-2.375,0.975h-10.2  l-17.75,43.425c-0.254,0.623-0.662,1.123-1.225,1.5c-0.571,0.382-1.196,0.574-1.875,0.575h-12.675c-0.151,0.011-0.301,0.011-0.45,0  h-38.7c-0.188,0.019-0.38,0.019-0.575,0h-13.5c-0.927,0.002-1.719-0.323-2.375-0.975c-0.652-0.656-0.977-1.448-0.975-2.375  c-0.002-0.927,0.322-1.719,0.975-2.375c0.656-0.652,1.448-0.977,2.375-0.975h8.875l-2.25-5.675c-0.039-0.099-0.072-0.199-0.1-0.3  l-4.125-10.35c-0.106-0.191-0.189-0.392-0.25-0.6L195.425-206.475z M667-43.05V-89.1h-76.65v46.05H667z M657.8-59  c0.928-0.002,1.719,0.323,2.375,0.975c0.652,0.656,0.978,1.448,0.976,2.375c0.002,0.927-0.323,1.719-0.976,2.375  c-0.656,0.652-1.447,0.977-2.375,0.975h-22.75c-0.927,0.002-1.719-0.323-2.375-0.975c-0.652-0.656-0.977-1.448-0.975-2.375  c-0.002-0.927,0.322-1.719,0.975-2.375c0.656-0.652,1.448-0.977,2.375-0.975H657.8z M661.15-67.65  c0.002,0.927-0.323,1.719-0.976,2.375c-0.656,0.652-1.447,0.977-2.375,0.975h-22.75c-0.927,0.002-1.719-0.323-2.375-0.975  c-0.652-0.656-0.977-1.448-0.975-2.375c-0.002-0.927,0.322-1.719,0.975-2.375c0.656-0.652,1.448-0.977,2.375-0.975h22.75  c0.928-0.002,1.719,0.323,2.375,0.975C660.827-69.369,661.152-68.577,661.15-67.65z M657.8-83c0.928-0.002,1.719,0.323,2.375,0.975  c0.652,0.656,0.978,1.448,0.976,2.375c0.002,0.927-0.323,1.719-0.976,2.375c-0.656,0.652-1.447,0.977-2.375,0.975h-22.75  c-0.927,0.002-1.719-0.323-2.375-0.975c-0.652-0.656-0.977-1.448-0.975-2.375c-0.002-0.927,0.322-1.719,0.975-2.375  c0.656-0.652,1.448-0.977,2.375-0.975H657.8z M670.35-95.8c0.928-0.002,1.72,0.323,2.375,0.975c0.652,0.656,0.978,1.448,0.976,2.375  v52.75c0.002,0.927-0.323,1.719-0.976,2.375c-0.655,0.652-1.447,0.977-2.375,0.975h-38.3v14h25.45  c0.927-0.002,1.719,0.323,2.375,0.975c0.652,0.656,0.977,1.448,0.975,2.375c0.002,0.927-0.322,1.719-0.975,2.375  c-0.656,0.652-1.448,0.977-2.375,0.975h-55.4c-0.927,0.002-1.719-0.323-2.375-0.975c-0.651-0.656-0.977-1.448-0.975-2.375  c-0.002-0.927,0.323-1.719,0.975-2.375c0.656-0.652,1.448-0.977,2.375-0.975h23.25v-14H587c-0.927,0.002-1.719-0.323-2.375-0.975  c-0.652-0.656-0.977-1.448-0.975-2.375v-52.75c-0.002-0.927,0.322-1.719,0.975-2.375c0.656-0.652,1.448-0.977,2.375-0.975H670.35z   M264.65-131.9c0.735,0.001,1.401,0.226,2,0.675l32.55,24.45c0.425,0.314,0.758,0.706,1,1.175c0.234,0.472,0.352,0.972,0.35,1.5  v0.35c0.127,0.674,0.127,1.266,0,1.775v58.325c0.229,3.033-1.388,4.55-4.85,4.55H214.85c-3.524,0-5.158-1.517-4.899-4.55v-83.75  c-0.295-3,1.338-4.5,4.899-4.5h49.426c-3.285,0.164-4.793,1.664-4.525,4.5v2.2h4.8c0.928,0.002,1.719-0.323,2.375-0.975  c0.652-0.656,0.978-1.448,0.976-2.375c0.002-0.927-0.323-1.719-0.976-2.375C266.293-131.554,265.534-131.878,264.65-131.9z   M-135.2,412.225c-9.241,0.722-17.232,4.454-23.975,11.2c-3.256,3.252-5.823,6.811-7.7,10.675c-0.285,0.576-0.702,1.034-1.25,1.375  c-0.543,0.347-1.135,0.521-1.775,0.525h-24.25v29.5h24.25c0.64,0.004,1.232,0.179,1.775,0.525c0.548,0.341,0.965,0.799,1.25,1.375  c1.877,3.864,4.444,7.423,7.7,10.675c6.742,6.746,14.734,10.479,23.975,11.2V412.225z M-131.85,405.4  c0.927-0.003,1.719,0.322,2.375,0.975c0.652,0.656,0.977,1.448,0.975,2.375v84c0.002,0.927-0.323,1.719-0.975,2.375  c-0.656,0.652-1.448,0.978-2.375,0.975c-12.527,0.002-23.219-4.423-32.075-13.274c-3.272-3.276-5.947-6.817-8.025-10.625h-25.55  c-0.927,0.002-1.719-0.323-2.375-0.976c-0.652-0.655-0.977-1.447-0.975-2.375V432.65c-0.002-0.928,0.323-1.72,0.975-2.375  c0.656-0.652,1.448-0.978,2.375-0.976h25.55c2.078-3.808,4.753-7.349,8.025-10.625C-155.069,409.823-144.377,405.398-131.85,405.4z   M-80.25,428.6c0.927-0.002,1.719,0.323,2.375,0.976c0.652,0.656,0.977,1.447,0.975,2.375c0.002,0.927-0.323,1.719-0.975,2.375  L-93.6,450.1l15.675,15.676c0.652,0.655,0.977,1.447,0.975,2.375c0.002,0.927-0.323,1.719-0.975,2.375  c-0.656,0.651-1.448,0.977-2.375,0.975c-0.927,0.002-1.719-0.323-2.375-0.975L-98.35,454.85l-15.725,15.676  c-0.656,0.651-1.448,0.977-2.375,0.975c-0.927,0.002-1.719-0.323-2.375-0.975c-0.652-0.656-0.977-1.448-0.975-2.375  c-0.002-0.928,0.323-1.72,0.975-2.375L-103.1,450.1l-15.775-15.774c-0.652-0.656-0.977-1.448-0.975-2.375  c-0.002-0.928,0.323-1.719,0.975-2.375c0.656-0.652,1.448-0.978,2.375-0.976c0.927-0.002,1.719,0.323,2.375,0.976l15.775,15.774  l15.725-15.774C-81.969,428.923-81.177,428.598-80.25,428.6z M-363.45,313.55c0.914,0.037,1.68,0.396,2.3,1.075  c0.632,0.682,0.932,1.481,0.9,2.4c-0.125,3.362-1.459,6.245-4,8.649c-0.041,0.038-0.083,0.08-0.125,0.125  c-0.243,0.209-0.468,0.401-0.675,0.575c-0.037,0.024-0.07,0.049-0.1,0.075c-2.454,1.884-5.32,2.834-8.6,2.85  c-3.588-0.01-6.697-1.177-9.325-3.5c-0.035-0.031-0.068-0.064-0.1-0.1c-0.02-0.019-0.036-0.035-0.05-0.05  c-2.561-2.403-3.902-5.278-4.025-8.625c-0.032-0.919,0.268-1.719,0.9-2.4c0.62-0.68,1.387-1.038,2.3-1.075  c0.928-0.033,1.736,0.268,2.425,0.9c0.679,0.628,1.038,1.402,1.075,2.325c0.063,1.286,0.513,2.428,1.35,3.425  c0.172,0.203,0.363,0.402,0.575,0.6c0.234,0.207,0.476,0.398,0.725,0.575c1.209,0.825,2.593,1.233,4.15,1.225  c1.675,0.017,3.142-0.442,4.4-1.375c0.193-0.159,0.401-0.334,0.625-0.524c1.112-1.103,1.703-2.411,1.775-3.925  c0.038-0.923,0.396-1.697,1.075-2.325C-365.186,313.817-364.378,313.517-363.45,313.55z M-449.7,346.775  c-3.236,3.213-4.853,7.104-4.85,11.675c0.002,4.539,1.61,8.414,4.825,11.625c0.531,0.54,0.848,1.182,0.95,1.925  c0.103,0.732-0.031,1.424-0.4,2.075c-0.367,0.661-0.892,1.145-1.575,1.45c-3.592,1.575-6.884,3.858-9.875,6.85  c-5.059,5.054-8.076,10.945-9.05,17.675h63.35c-0.974-6.729-3.991-12.621-9.05-17.675v-0.025c-2.978-3.009-6.269-5.284-9.875-6.824  c-0.691-0.294-1.224-0.769-1.6-1.426c-0.38-0.657-0.522-1.357-0.425-2.1c0.102-0.745,0.418-1.387,0.95-1.925  c2.484-2.476,4.009-5.334,4.575-8.575v-0.025c0.168-0.979,0.251-1.988,0.25-3.024c0.001-0.804-0.041-1.579-0.125-2.325  c-0.457-3.566-2.032-6.684-4.725-9.35l-0.025-0.025c-3.211-3.234-7.086-4.852-11.625-4.85c-4.57-0.004-8.462,1.613-11.675,4.85  L-449.7,346.775z M-421.65,342.025l0.025,0.024c3.818,3.788,6.035,8.222,6.65,13.3v0.025c0.116,0.987,0.174,2.012,0.175,3.075  c-0.001,1.422-0.118,2.805-0.35,4.149c-0.528,3.181-1.703,6.097-3.525,8.75c2.865,1.675,5.548,3.775,8.05,6.301v-0.025  c7.155,7.161,10.93,15.711,11.325,25.65c0.026,0.61-0.107,1.186-0.4,1.725c-0.299,0.538-0.716,0.963-1.25,1.275  c-0.525,0.315-1.092,0.474-1.7,0.475h-70.7c-0.608-0.001-1.174-0.159-1.7-0.475c-0.534-0.313-0.951-0.737-1.25-1.275  c-0.293-0.539-0.426-1.114-0.4-1.725c0.396-9.939,4.17-18.489,11.325-25.65c2.496-2.496,5.162-4.579,8-6.25  c-2.585-3.773-3.876-8.081-3.875-12.925c0.003-6.418,2.278-11.885,6.825-16.4l0.025-0.024c4.515-4.547,9.982-6.822,16.4-6.825  C-431.617,335.201-426.167,337.477-421.65,342.025z M-374.275,252.7c-0.178,0.031-0.361,0.048-0.55,0.05  c-4.161,0.011-7.836,1.111-11.025,3.3c-0.797,0.553-1.43,1.203-1.9,1.95v0.025c-1.981,3.161-2.773,6.528-2.375,10.1v0.025  c0.291,2.758,0.349,5.517,0.175,8.274v0.05c-0.277,3.697-1.861,6.964-4.75,9.801l-0.025,0.024c-3.44,3.353-6.481,6.927-9.125,10.726  l-0.025,0.024c-0.906,1.255-1.681,2.597-2.325,4.025l0.025-0.025c-0.506,1.163-0.931,2.363-1.275,3.601h66.4  c-0.351-1.229-0.784-2.421-1.3-3.575c-0.644-1.429-1.419-2.771-2.325-4.025l-0.025-0.024c-2.65-3.799-5.683-7.374-9.1-10.726h0.025  c-2.938-2.844-4.547-6.119-4.825-9.825v-0.05c-0.176-2.759-0.101-5.517,0.225-8.274V268.1c0.361-3.562-0.447-6.92-2.425-10.074V258  c-0.47-0.747-1.103-1.397-1.9-1.95c-3.161-2.188-6.835-3.289-11.025-3.3C-373.914,252.748-374.097,252.731-374.275,252.7z   M-374.875,246.05c0.207,0,0.407,0.017,0.6,0.05c0.193-0.033,0.393-0.05,0.6-0.05c5.61,0.056,10.535,1.556,14.775,4.5  c1.603,1.114,2.87,2.431,3.8,3.95v-0.025c2.813,4.497,3.938,9.289,3.375,14.375v0.051c-0.271,2.342-0.33,4.683-0.175,7.024v0.05  c0.202,2.073,1.126,3.915,2.775,5.525h0.025c3.717,3.648,7.017,7.54,9.9,11.675c1.149,1.606,2.133,3.323,2.95,5.15  c1.3,2.89,2.175,5.965,2.625,9.225c0.09,0.644-0.001,1.261-0.275,1.851c-0.279,0.595-0.696,1.069-1.25,1.425  c-0.549,0.351-1.149,0.526-1.8,0.524h-74.65c-0.65,0.004-1.25-0.172-1.8-0.524c-0.556-0.36-0.973-0.844-1.25-1.45  c-0.277-0.604-0.369-1.229-0.275-1.875c0.481-3.233,1.348-6.283,2.6-9.15l0.025-0.024c0.817-1.827,1.801-3.544,2.95-5.15  l0.025-0.024c2.875-4.118,6.184-7.993,9.925-11.625l0.025-0.025c1.628-1.624,2.537-3.482,2.725-5.575  c0.157-2.358,0.116-4.717-0.125-7.075c-0.597-5.085,0.511-9.877,3.325-14.375v0.025c0.93-1.52,2.197-2.836,3.8-3.95  C-385.372,247.605-380.447,246.105-374.875,246.05z M-603.4,359.95c-0.927,0.002-1.719-0.323-2.375-0.976  c-0.652-0.655-0.977-1.447-0.975-2.375c-0.002-0.927,0.323-1.719,0.975-2.375c0.656-0.651,1.448-0.977,2.375-0.975h78.75  c0.927-0.002,1.719,0.323,2.375,0.975c0.652,0.656,0.977,1.448,0.975,2.375c0.002,0.928-0.323,1.72-0.975,2.375  c-0.656,0.652-1.448,0.978-2.375,0.976H-603.4z M-563.05,296.625c0.735-0.376,1.502-0.468,2.3-0.275  c0.797,0.19,1.439,0.615,1.925,1.275l9,12.45l9.775-23.95l-3.2,1.05c-0.875,0.287-1.725,0.22-2.55-0.2  c-0.827-0.413-1.385-1.055-1.675-1.925c-0.288-0.875-0.221-1.725,0.2-2.55c0.413-0.826,1.054-1.384,1.925-1.675l9.875-3.275  c0.377-0.163,0.769-0.246,1.175-0.25c0.143-0.012,0.285-0.012,0.425,0c0.09,0.017,0.182,0.033,0.275,0.05  c0.042,0.008,0.084,0.017,0.125,0.025c0.846,0.181,1.521,0.631,2.025,1.35l5.3,7.601c0.529,0.77,0.712,1.611,0.55,2.524  c-0.168,0.905-0.635,1.622-1.4,2.15c-0.76,0.53-1.593,0.714-2.5,0.55c-0.904-0.161-1.621-0.62-2.15-1.375l-1.775-2.55l-12.475,30.6  c-0.315,0.762-0.84,1.328-1.575,1.7c-0.733,0.378-1.5,0.47-2.3,0.275c-0.809-0.188-1.459-0.613-1.95-1.275l-9.025-12.475l-11.65,28  c-0.332,0.779-0.881,1.354-1.65,1.725c-0.759,0.367-1.542,0.434-2.35,0.2c-0.817-0.232-1.458-0.708-1.925-1.425l-8.3-12.976  l-10.45,26.45c-0.347,0.861-0.947,1.478-1.8,1.851c-0.847,0.363-1.697,0.372-2.55,0.024c-0.861-0.338-1.478-0.93-1.85-1.774  c-0.372-0.847-0.388-1.697-0.05-2.551l12.85-32.55c0.319-0.797,0.86-1.389,1.625-1.774c0.771-0.38,1.571-0.455,2.4-0.226  c0.821,0.231,1.463,0.706,1.925,1.425l8.375,13.101l11.5-27.65C-564.325,297.551-563.792,296.992-563.05,296.625z M-399.325,116.25  v0.025c-0.099,0.688,0.06,1.313,0.475,1.875v0.024c0.399,0.51,0.941,0.81,1.625,0.9h0.025c0.674,0.1,1.291-0.051,1.85-0.45  l-0.05,0.025c0.553-0.407,0.877-0.948,0.975-1.625l0.025-0.051c0.09-0.548,0.007-1.056-0.25-1.524  c-0.086-0.097-0.169-0.197-0.25-0.3c-0.408-0.548-0.941-0.873-1.6-0.976c-0.673-0.104-1.273,0.039-1.8,0.425l-0.025,0.025  c-0.303,0.235-0.536,0.493-0.7,0.775c-0.027,0.049-0.052,0.099-0.075,0.149C-399.212,115.755-399.287,115.988-399.325,116.25z   M-402.375,109.275c1.996-1.524,4.279-2.107,6.85-1.75h0.025c2.475,0.364,4.475,1.572,6,3.625c0.124,0.148,0.231,0.299,0.325,0.449  l0.025,0.025c1.265,1.949,1.715,4.083,1.35,6.4l0.025-0.051c-0.37,2.523-1.578,4.549-3.625,6.075l-0.05,0.025  c-2.034,1.462-4.275,2.012-6.725,1.649c-2.583-0.376-4.608-1.575-6.075-3.6v0.025c-1.513-2.033-2.088-4.3-1.725-6.801  c0.17-1.205,0.537-2.271,1.1-3.199l-0.1,0.149c0.564-1.109,1.423-2.109,2.575-3L-402.375,109.275z M-421.3,102.95l-4.95,34  l56.4,8.149l4.95-34L-421.3,102.95z M-442.6,110.8c0.643-0.65,1.417-0.983,2.325-1l4.45-0.1c0.916-0.021,1.708,0.286,2.375,0.925  c0.674,0.643,1.024,1.426,1.05,2.35c0.022,0.917-0.286,1.709-0.925,2.375c-0.641,0.674-1.424,1.023-2.35,1.051l-1.175,0.024v34.851  l41.425-1.976c0.924-0.041,1.732,0.25,2.425,0.875c0.687,0.617,1.054,1.385,1.1,2.3c0.042,0.926-0.25,1.733-0.875,2.426  c-0.617,0.686-1.383,1.053-2.3,1.1l-44.95,2.15c-0.617,0.027-1.2-0.105-1.75-0.4c-0.547-0.289-0.98-0.697-1.3-1.225  c-0.317-0.535-0.476-1.11-0.475-1.726V113.15C-443.553,112.24-443.236,111.457-442.6,110.8z M-409.95,120.8  c0.79,0.045,1.481,0.337,2.075,0.875l11.325,10.375l14.925-15.1c0.466-0.471,1.017-0.778,1.65-0.925  c0.633-0.144,1.258-0.102,1.875,0.125c0.617,0.227,1.125,0.602,1.525,1.125l7.9,10.35c0.56,0.74,0.776,1.565,0.65,2.475  c-0.128,0.919-0.561,1.66-1.3,2.226c-0.737,0.56-1.563,0.776-2.475,0.649c-0.918-0.13-1.66-0.563-2.225-1.3l-5.55-7.274  l-14.5,14.649c-0.636,0.643-1.402,0.976-2.3,1c-0.899,0.023-1.682-0.268-2.35-0.875l-11.675-10.7l-7.85,5.75  c-0.747,0.536-1.572,0.728-2.475,0.575c-0.908-0.148-1.633-0.599-2.175-1.35c-0.545-0.745-0.746-1.57-0.6-2.476  c0.15-0.915,0.6-1.648,1.35-2.199l10.05-7.351C-411.452,120.959-410.735,120.751-409.95,120.8z M-427.475,98.675  c0.141-0.914,0.582-1.647,1.325-2.2c0.737-0.558,1.563-0.774,2.475-0.649l63.05,9.1c0.911,0.136,1.644,0.577,2.2,1.325  c0.562,0.738,0.778,1.563,0.65,2.475l-5.9,40.65c-0.138,0.909-0.58,1.643-1.325,2.2c-0.738,0.56-1.563,0.776-2.475,0.649l-63.05-9.1  c-0.91-0.134-1.644-0.575-2.2-1.325c-0.563-0.743-0.78-1.568-0.65-2.475L-427.475,98.675z M-441.15,48.5  c2.823-2.873,4.239-6.273,4.25-10.2c0.006-4-1.394-7.392-4.2-10.175h-0.025c-2.871-2.875-6.296-4.316-10.275-4.325  c-3.976,0.002-7.384,1.436-10.225,4.3c-0.019,0.022-0.035,0.047-0.05,0.075c-2.882,2.77-4.324,6.145-4.325,10.125  c0.01,3.917,1.46,7.308,4.35,10.175l0.05,0.025c2.834,2.893,6.234,4.342,10.2,4.35c3.978-0.005,7.403-1.455,10.275-4.35H-441.15z   M-436.375,23.375h-0.025c4.127,4.083,6.194,9.058,6.2,14.925c0.011,5.74-2.04,10.706-6.15,14.9h-0.025  c-4.195,4.238-9.204,6.355-15.025,6.35c-5.834,0.008-10.834-2.108-15-6.35l0.05,0.024c-4.243-4.199-6.36-9.174-6.35-14.925  c-0.001-5.886,2.124-10.877,6.375-14.975l-0.05,0.075c4.159-4.202,9.15-6.302,14.975-6.3  C-445.579,17.091-440.571,19.183-436.375,23.375z M-118.9,317.325c-0.088-0.091-0.18-0.183-0.275-0.275l-25.55,28.375l26.4,26.476  c7.305-7.517,10.947-16.475,10.925-26.875V345c-0.066-10.804-3.891-20.013-11.475-27.625L-118.9,317.325z M-68.975,257.95v0.024  c-2.077-2.081-4.585-3.123-7.525-3.125c-2.939,0.002-5.448,1.044-7.525,3.125v-0.024c-2.082,2.11-3.123,4.627-3.125,7.55  c0.002,2.939,1.043,5.448,3.125,7.525c2.077,2.081,4.585,3.123,7.525,3.125c2.939-0.002,5.448-1.044,7.525-3.125  c2.082-2.077,3.123-4.586,3.125-7.525C-65.852,262.577-66.894,260.061-68.975,257.95z M-64.225,253.225v0.025  c3.385,3.422,5.077,7.506,5.075,12.25c0.002,4.794-1.69,8.886-5.075,12.275c-3.389,3.385-7.481,5.076-12.275,5.074  c-4.794,0.002-8.886-1.689-12.275-5.074c-3.385-3.39-5.077-7.481-5.075-12.275c-0.002-4.744,1.69-8.828,5.075-12.25v-0.025  c3.389-3.385,7.481-5.076,12.275-5.074C-71.706,248.148-67.614,249.84-64.225,253.225z M-71.15,240.675l0.075,0.025  c-5.216-1.008-10.3-0.491-15.25,1.55l0.025-0.025c-4.89,2.082-8.832,5.349-11.825,9.801c-3.365,5.01-4.782,10.552-4.25,16.625  c0.521,5.638,2.346,10.821,5.475,15.55c3.158,4.791,6.316,9.55,9.475,14.274l0.025,0.025c3.542,5.35,7.066,10.783,10.575,16.3  c0.4,0.63,0.801,1.263,1.2,1.9c2.652-4.285,5.311-8.577,7.975-12.875v0.024c2.649-4.291,5.35-8.55,8.1-12.774l-0.025,0.024  c2.17-3.404,4.179-6.954,6.025-10.649v0.024c2.62-5.313,3.687-10.913,3.2-16.8c-0.432-5.19-2.315-9.766-5.65-13.725h-0.025  c-0.603-0.721-1.219-1.412-1.85-2.075c-0.017-0.017-0.034-0.033-0.05-0.05C-61.615,244.151-66.023,241.768-71.15,240.675z   M-53.125,243.125c0.013,0.019,0.03,0.035,0.05,0.05c0.751,0.789,1.485,1.614,2.2,2.476H-50.9c4.265,5.04,6.682,10.865,7.25,17.475  c0.58,7.113-0.721,13.88-3.9,20.3v0.025c-1.954,3.904-4.079,7.654-6.375,11.25l-0.025,0.024c-2.716,4.176-5.383,8.384-8,12.625  v0.025c-3.6,5.792-7.183,11.566-10.75,17.325c-0.407,0.662-0.974,1.129-1.7,1.399c-0.73,0.266-1.463,0.273-2.2,0.025  c-0.738-0.242-1.321-0.684-1.75-1.325c-1.409-2.15-2.784-4.283-4.125-6.399c-3.492-5.483-7-10.884-10.525-16.2l0.025,0.024  c-3.175-4.741-6.35-9.517-9.525-14.324c-3.738-5.672-5.913-11.889-6.525-18.65c-0.668-7.66,1.115-14.652,5.35-20.975  c3.74-5.548,8.665-9.615,14.775-12.2l0.025-0.025c6.183-2.559,12.533-3.209,19.05-1.95c0.019,0.009,0.044,0.017,0.075,0.025  C-63.3,235.493-57.758,238.493-53.125,243.125z M-173.95,317.5l0.025-0.05c-7.522,7.584-11.297,16.751-11.325,27.5  c0.034,10.678,3.859,19.836,11.475,27.475c7.584,7.617,16.776,11.459,27.575,11.525h0.025c8.541-0.036,16.166-2.536,22.875-7.5  l-28.425-28.525c-0.628-0.641-0.953-1.407-0.975-2.3c-0.024-0.888,0.259-1.662,0.85-2.325l27.475-30.5  c-6.473-4.498-13.831-6.731-22.075-6.7C-157.042,306.081-166.209,309.881-173.95,317.5z M-178.675,312.75l0.025-0.05  c9.059-8.915,19.792-13.349,32.2-13.3c11.083-0.031,20.8,3.428,29.15,10.375l0.025,0.024c1.076,0.835,2.134,1.794,3.175,2.875  l-0.025-0.05c8.877,8.915,13.352,19.698,13.425,32.35V345c0.038,12.455-4.412,23.146-13.35,32.075c-0.571,0.648-1.196,1.315-1.875,2  c-0.124,0.122-0.249,0.23-0.375,0.325c-8.59,7.469-18.557,11.219-29.9,11.25h-0.025c-12.654-0.07-23.42-4.563-32.3-13.476  c-8.918-8.961-13.393-19.702-13.425-32.225C-191.911,332.365-187.486,321.632-178.675,312.75z M-255.775,306.85  c-0.568,0.421-1.202,0.638-1.9,0.65L-280,307.95l17.675,14.399c0.517,0.429,0.875,0.962,1.075,1.601  c0.2,0.633,0.208,1.266,0.025,1.899l-6.3,22.45l18.225-13.125c0.583-0.42,1.233-0.628,1.95-0.625  c0.724,0.004,1.382,0.221,1.975,0.65l17.825,13l-6.225-22.15c-0.184-0.634-0.175-1.268,0.025-1.899  c0.202-0.64,0.56-1.174,1.075-1.601l17.75-14.45l-22.125-0.6c-0.7-0.025-1.333-0.25-1.9-0.675c-0.563-0.421-0.954-0.963-1.175-1.625  l-7.225-21.625l-7.225,21.649C-254.802,305.892-255.202,306.434-255.775,306.85z M-245.4,270.275  c0.586,0.428,0.994,0.986,1.225,1.675l9.65,28.925l28.825,0.775c0.701,0.019,1.334,0.235,1.9,0.649  c0.56,0.419,0.952,0.961,1.175,1.625c0.227,0.664,0.243,1.33,0.05,2c-0.193,0.671-0.56,1.229-1.1,1.675l-23.05,18.775l8.25,29.325  c0.193,0.679,0.168,1.354-0.075,2.024c-0.244,0.674-0.661,1.216-1.25,1.625c-0.58,0.409-1.222,0.609-1.925,0.601  c-0.715-0.011-1.365-0.228-1.95-0.65l-23.675-17.274l-24.05,17.3c-0.576,0.413-1.218,0.621-1.925,0.625  c-0.714,0.007-1.364-0.193-1.95-0.601c-0.579-0.409-0.988-0.95-1.225-1.625c-0.242-0.672-0.268-1.347-0.075-2.024l8.3-29.525  l-23.05-18.774c-0.542-0.445-0.908-1.004-1.1-1.676c-0.195-0.672-0.178-1.339,0.05-2c0.23-0.665,0.63-1.206,1.2-1.625  c0.567-0.417,1.201-0.634,1.9-0.649l29.1-0.601l9.65-28.899c0.23-0.688,0.639-1.246,1.225-1.675c0.584-0.42,1.234-0.628,1.95-0.625  C-246.634,269.647-245.984,269.855-245.4,270.275z M-173.25,244.275h-0.025c-5.513-5.547-12.188-8.322-20.025-8.325  c-7.87,0.002-14.562,2.777-20.075,8.325c-5.548,5.543-8.323,12.235-8.325,20.074c0,0.823,0.034,1.641,0.1,2.45h56.6  c0.067-0.81,0.1-1.627,0.1-2.45C-164.897,256.511-167.68,249.819-173.25,244.275z M-168.525,239.55v-0.024  c6.889,6.855,10.33,15.13,10.325,24.824c0,2.162-0.183,4.287-0.55,6.375c-0.141,0.794-0.524,1.453-1.15,1.976  c-0.622,0.529-1.338,0.796-2.15,0.8h-62.5c-0.812-0.004-1.529-0.271-2.15-0.8c-0.625-0.522-1.009-1.182-1.15-1.976  c-0.366-2.088-0.55-4.213-0.55-6.375c-0.002-9.693,3.423-17.969,10.275-24.824v0.024c6.819-6.86,15.094-10.294,24.825-10.3  C-183.604,229.255-175.346,232.688-168.525,239.55z M-183.475,197.1v0.025c-2.711-2.715-5.986-4.073-9.825-4.075  c-3.808,0.004-7.066,1.362-9.775,4.075c-2.712,2.709-4.071,5.967-4.075,9.775c-0.004,3.835,1.346,7.093,4.05,9.774h0.025  c2.709,2.713,5.967,4.071,9.775,4.075c3.839-0.002,7.114-1.36,9.825-4.075c2.685-2.681,4.027-5.938,4.025-9.774  C-179.448,203.083-180.79,199.815-183.475,197.1z M-178.725,192.375v0.025c3.982,4.017,5.974,8.851,5.975,14.5  c-0.001,5.697-1.993,10.539-5.975,14.524c-4.022,4.019-8.881,6.027-14.575,6.025c-5.659,0.004-10.5-2.005-14.525-6.025h0.025  c-4.029-3.984-6.046-8.826-6.05-14.524c-0.004-5.659,2.004-10.501,6.025-14.525c4.025-4.021,8.867-6.029,14.525-6.025  C-187.606,186.349-182.748,188.356-178.725,192.375z M-303.175,190.05l-0.025,0.025c-0.903,0.643-1.528,1.484-1.875,2.524  l-5.5,16.45c-0.217,0.672-0.609,1.222-1.175,1.65c-0.577,0.42-1.218,0.637-1.925,0.649l-16.375,0.351  c-1.093,0.019-2.085,0.352-2.975,1l-0.025,0.024c-0.847,0.619-1.438,1.444-1.775,2.476c-0.009,0.029-0.017,0.063-0.025,0.1  c-0.344,0.963-0.369,1.954-0.075,2.976v-0.025c0.31,1.068,0.893,1.968,1.75,2.7l-0.075-0.05l13.3,10.8  c0.522,0.424,0.889,0.957,1.1,1.6c0.201,0.636,0.209,1.269,0.025,1.9l-4.8,17.1v0.025c-0.307,1.043-0.282,2.076,0.075,3.1  c0.373,1.032,1.014,1.873,1.925,2.525c0.882,0.624,1.874,0.941,2.975,0.95c1.111-0.024,2.12-0.357,3.025-1l13.425-9.676  c0.597-0.421,1.255-0.629,1.975-0.625c0.714,0.006,1.365,0.223,1.95,0.65l13.3,9.65c0.882,0.642,1.874,0.975,2.975,1h0.05  c1.06-0.009,2.035-0.31,2.925-0.9c0.024-0.018,0.049-0.034,0.075-0.05c0.881-0.671,1.514-1.529,1.9-2.575v0.05  c0.356-1.023,0.382-2.057,0.075-3.1l-4.8-16.95c-0.185-0.644-0.176-1.285,0.025-1.925c0.208-0.639,0.574-1.172,1.1-1.601l13.3-10.85  l-0.05,0.025c0.842-0.701,1.417-1.576,1.725-2.625c0.302-1.019,0.285-2.027-0.05-3.025v-0.025c-0.334-0.997-0.934-1.797-1.8-2.399  c-0.028-0.024-0.062-0.05-0.1-0.075c-0.833-0.636-1.782-0.978-2.85-1.025l-16.2-0.449c-0.7-0.016-1.333-0.232-1.9-0.65  c-0.571-0.417-0.971-0.959-1.2-1.625l-5.5-16.45c-0.366-1.077-0.991-1.943-1.875-2.6c-0.915-0.651-1.932-0.977-3.05-0.976  C-301.302,189.095-302.294,189.411-303.175,190.05z M-311.425,190.5c0.783-2.415,2.216-4.365,4.3-5.85l0.025-0.025  c2.048-1.478,4.348-2.22,6.9-2.225c2.548,0.001,4.865,0.742,6.95,2.225l0.025,0.025c2.036,1.472,3.469,3.43,4.3,5.875l4.75,14.25  l13.9,0.375c2.469,0.093,4.669,0.859,6.6,2.3c0.033,0.024,0.067,0.05,0.1,0.075c2.014,1.453,3.414,3.361,4.2,5.725v-0.025  c0.798,2.335,0.848,4.693,0.15,7.075c-0.692,2.351-1.984,4.309-3.875,5.875l-0.05,0.025l-11.575,9.45l4.2,14.824  c0.693,2.424,0.618,4.823-0.225,7.2v0.05c-0.871,2.326-2.312,4.218-4.325,5.676c-0.025,0.013-0.051,0.03-0.075,0.05  c-2.076,1.433-4.359,2.149-6.85,2.149h-0.05c-2.545-0.052-4.837-0.818-6.875-2.3l-11.325-8.225l-11.5,8.3l-0.025,0.025  c-2.028,1.423-4.287,2.156-6.775,2.199h-0.05c-2.546,0-4.837-0.717-6.875-2.149l-0.025-0.025c-2.077-1.476-3.526-3.393-4.35-5.75  c-0.843-2.377-0.918-4.776-0.225-7.2v0.025l4.2-15l-11.575-9.4c-0.024-0.021-0.049-0.037-0.075-0.05  c-1.877-1.602-3.16-3.568-3.85-5.899v-0.025c-0.706-2.446-0.631-4.821,0.225-7.125l-0.025,0.1c0.792-2.424,2.192-4.357,4.2-5.8  l0.025-0.024c2.039-1.469,4.305-2.228,6.8-2.275l13.975-0.3L-311.425,190.5z M-275.625,137.175l0.025-0.05l-0.9,0.925l7.075,7.075  c0.652,0.656,0.977,1.448,0.975,2.375c0.002,0.927-0.323,1.719-0.975,2.375c-0.656,0.652-1.448,0.978-2.375,0.975  c-0.927,0.003-1.719-0.322-2.375-0.975l-7.075-7.075l-0.85,0.825l-0.025,0.05c-2.281,2.276-2.297,4.543-0.05,6.8l15.6,15.601  c0.367,0.374,0.734,0.698,1.1,0.975h0.025c1.869,1.235,3.76,0.894,5.675-1.024l6.5-6.5c0.372-0.367,0.706-0.734,1-1.101l-0.05,0.05  c1.323-1.916,1.023-3.833-0.9-5.75l-15.6-15.6C-271.082,134.878-273.349,134.895-275.625,137.175z M-244.7,61.85  c0-0.05,0-0.1,0-0.149c-0.001-4.406-1.56-8.164-4.675-11.275V50.4c-3.082-3.105-6.823-4.655-11.225-4.65  c-4.402-0.005-8.144,1.545-11.225,4.65v0.024c-3.115,3.111-4.673,6.869-4.675,11.275c0,0.05,0,0.1,0,0.149H-244.7z M-318.725,94.075  c5.457-5.453,10.89-5.47,16.3-0.05l15.6,15.6c5.446,5.45,5.446,10.9,0,16.35l-0.05,0.025l-0.825,0.85l6.475,6.476l0.825-0.851  l0.025-0.05c5.457-5.452,10.89-5.469,16.3-0.05l15.6,15.6c4.813,4.818,5.313,9.669,1.5,14.551c-0.019,0.014-0.036,0.03-0.05,0.05  c-0.439,0.566-0.939,1.134-1.5,1.7l-6.5,6.5c-4.822,4.816-9.63,5.375-14.425,1.675h0.025c-0.634-0.457-1.268-0.999-1.9-1.625  l-15.6-15.601c-5.419-5.409-5.403-10.843,0.05-16.3l-0.025,0.05l0.925-0.899l-6.475-6.476l-0.925,0.9l0.05-0.025  c-5.45,5.446-10.9,5.446-16.35,0l-15.6-15.6c-5.419-5.41-5.403-10.843,0.05-16.3L-318.725,94.075z M-307.175,98.775  c-2.257-2.248-4.523-2.231-6.8,0.05l-6.5,6.5c-2.281,2.276-2.297,4.543-0.05,6.8l15.6,15.6c2.283,2.288,4.566,2.288,6.85,0  l0.05-0.024l0.85-0.825l-5.85-5.85c-0.652-0.656-0.977-1.448-0.975-2.375c-0.002-0.928,0.323-1.72,0.975-2.375  c0.656-0.652,1.448-0.978,2.375-0.976c0.927-0.002,1.719,0.323,2.375,0.976l5.85,5.85l0.9-0.925l-0.05,0.024  c2.288-2.283,2.288-4.566,0-6.85L-307.175,98.775z M-292.375,50.425V50.4c-3.082-3.105-6.823-4.655-11.225-4.65  c-4.402-0.005-8.144,1.545-11.225,4.65v0.024c-3.115,3.111-4.673,6.869-4.675,11.275c0,0.05,0,0.1,0,0.149h31.8  c0-0.05,0-0.1,0-0.149C-287.702,57.294-289.26,53.536-292.375,50.425z M-298.6,21.8c-0.267-0.274-0.534-0.516-0.8-0.725V21.1  c-1.218-0.906-2.618-1.356-4.2-1.35c-1.929,0.003-3.579,0.687-4.95,2.05l-0.025,0.025c-1.375,1.406-2.067,3.081-2.075,5.025  c0.003,1.94,0.695,3.599,2.075,4.975c1.376,1.38,3.035,2.072,4.975,2.075c1.97,0.001,3.645-0.691,5.025-2.075  c0.43-0.43,0.796-0.88,1.1-1.35c0.007-0.018,0.015-0.034,0.025-0.05c0.639-1.069,0.956-2.261,0.95-3.575  c-0.008-1.944-0.699-3.619-2.075-5.025L-298.6,21.8z M-270.35,17.1l0.025-0.025c0.02-0.02,0.036-0.036,0.05-0.05  c-3-2.854-6.608-4.279-10.825-4.275c-4.402-0.005-8.144,1.545-11.225,4.65v0.025c-0.21,0.208-0.411,0.417-0.6,0.625  c2.09,2.522,3.131,5.456,3.125,8.8c-0.006,2.6-0.647,4.958-1.925,7.075l-0.025,0.05c-0.561,0.911-1.252,1.777-2.075,2.6  c-1.361,1.359-2.87,2.376-4.525,3.05c4.046,0.915,7.621,2.94,10.725,6.075v-0.025c2.617,2.62,4.459,5.562,5.525,8.825  c1.066-3.264,2.908-6.205,5.525-8.825V45.7c3.11-3.141,6.693-5.166,10.75-6.075c-1.642-0.677-3.142-1.694-4.5-3.05  c-0.823-0.823-1.514-1.689-2.075-2.6l-0.025-0.05c-1.278-2.117-1.92-4.475-1.925-7.075C-274.357,23.072-273.024,19.822-270.35,17.1z   M-256.4,21.1c-1.218-0.906-2.618-1.356-4.2-1.35c-0.993-0.008-1.918,0.158-2.775,0.5c-0.016,0.012-0.033,0.02-0.05,0.025  c-0.032,0.022-0.065,0.039-0.1,0.05c-0.021,0.021-0.046,0.038-0.075,0.05c-0.022,0.021-0.047,0.038-0.075,0.05  c-0.024,0.021-0.049,0.038-0.075,0.05l-0.025,0.025l-0.05,0.025l-0.025,0.025c-0.608,0.311-1.175,0.728-1.7,1.25l-0.025,0.025  c-1.375,1.406-2.067,3.081-2.075,5.025c-0.006,1.313,0.311,2.505,0.95,3.575c0.007,0.018,0.016,0.034,0.025,0.05  c0.303,0.47,0.67,0.92,1.1,1.35c1.376,1.38,3.035,2.072,4.975,2.075c1.97,0.001,3.645-0.691,5.025-2.075  c0.43-0.43,0.796-0.88,1.1-1.35c0.007-0.018,0.015-0.035,0.025-0.05c0.639-1.069,0.956-2.261,0.95-3.575  c-0.007-1.944-0.699-3.619-2.075-5.025L-255.6,21.8c-0.267-0.274-0.534-0.516-0.8-0.725V21.1z M-215.35,17.25  c0.007,1.211,0.449,2.253,1.325,3.125c0.877,0.881,1.935,1.323,3.175,1.325c1.211-0.007,2.253-0.449,3.125-1.325  c0.876-0.872,1.318-1.914,1.325-3.125c-0.007-1.211-0.449-2.253-1.325-3.125c-0.872-0.876-1.914-1.318-3.125-1.325  c-1.24,0.002-2.298,0.444-3.175,1.325C-214.901,14.997-215.343,16.039-215.35,17.25z M-210.85,6.1  c3.055-0.007,5.68,1.084,7.875,3.275c2.191,2.195,3.283,4.82,3.275,7.875c0.008,3.055-1.084,5.68-3.275,7.875  c-2.195,2.191-4.82,3.282-7.875,3.275c-3.093,0.002-5.735-1.089-7.925-3.275c-2.191-2.195-3.283-4.82-3.275-7.875  c-0.008-3.055,1.084-5.68,3.275-7.875C-216.585,7.189-213.943,6.098-210.85,6.1z M-171.975,9.375  c2.191,2.195,3.283,4.82,3.275,7.875c0.008,3.055-1.084,5.68-3.275,7.875c-2.19,2.186-4.832,3.277-7.925,3.275  c-3.055,0.007-5.68-1.084-7.875-3.275c-2.191-2.195-3.283-4.82-3.275-7.875c-0.008-3.055,1.084-5.68,3.275-7.875  c2.195-2.191,4.82-3.282,7.875-3.275C-176.807,6.098-174.165,7.189-171.975,9.375z M-179.9,21.7c1.24-0.002,2.298-0.444,3.175-1.325  c0.876-0.872,1.318-1.914,1.325-3.125c-0.007-1.211-0.449-2.253-1.325-3.125c-0.877-0.881-1.935-1.323-3.175-1.325  c-1.211,0.007-2.253,0.449-3.125,1.325c-0.876,0.872-1.318,1.914-1.325,3.125c0.007,1.211,0.449,2.253,1.325,3.125  C-182.153,21.251-181.111,21.693-179.9,21.7z M-141.475,141.675c8.92-8.915,19.745-13.374,32.475-13.375  c12.627-0.002,23.402,4.457,32.325,13.375H-76.7c7.391,7.316,11.732,15.949,13.025,25.9v0.024c0.25,2.063,0.375,4.196,0.375,6.4  c0.002,12.593-4.456,23.352-13.375,32.275c-8.923,8.918-19.698,13.376-32.325,13.375c-12.73-0.001-23.555-4.46-32.475-13.375  l-0.025-0.025c-8.769-8.917-13.152-19.667-13.15-32.25C-154.643,161.267-150.251,150.491-141.475,141.675z M-81.4,146.425h-0.025  C-89.036,138.811-98.228,135.002-109,135c-10.87-0.001-20.112,3.808-27.725,11.425c-7.49,7.518-11.232,16.709-11.225,27.575  c0.002,10.738,3.744,19.913,11.225,27.525l0.025,0.024c7.609,7.602,16.842,11.401,27.7,11.4  c10.772-0.002,19.964-3.811,27.575-11.425C-73.811,193.915-70.003,184.74-70,174c0-1.929-0.108-3.796-0.325-5.6  C-71.438,159.961-75.13,152.636-81.4,146.425z M-113.175,147.825c0.656-0.652,1.448-0.978,2.375-0.976  c0.927-0.002,1.719,0.323,2.375,0.976c0.652,0.656,0.977,1.447,0.975,2.375v23.1h15.65c0.927-0.002,1.719,0.323,2.375,0.976  c0.652,0.655,0.977,1.447,0.975,2.375c0.002,0.927-0.323,1.719-0.975,2.375c-0.656,0.651-1.448,0.977-2.375,0.975h-19  c-0.927,0.002-1.719-0.323-2.375-0.975c-0.652-0.656-0.977-1.448-0.975-2.375V150.2  C-114.152,149.272-113.827,148.481-113.175,147.825z M-145.975,70.325V70.3c-3.988-4.412-8.796-6.629-14.425-6.649  c-5.639,0.019-10.447,2.219-14.425,6.6c-0.017,0.016-0.034,0.032-0.05,0.05c-0.186,0.227-0.386,0.477-0.6,0.75  c-0.44,0.534-0.99,0.901-1.65,1.101c-0.65,0.202-1.3,0.202-1.95,0c-0.66-0.199-1.21-0.566-1.65-1.101  c-0.184-0.231-0.367-0.439-0.55-0.625c-0.03-0.041-0.064-0.083-0.1-0.125c-3.988-4.412-8.796-6.629-14.425-6.649  c-5.661,0.019-10.486,2.235-14.475,6.649c-4.019,4.462-6.027,9.945-6.025,16.45c-0.015,6.39,1.994,11.856,6.025,16.4l0.025,0.024  c3.064,3.372,14.089,13.889,33.075,31.55c17.139-17.008,27.539-27.533,31.2-31.574c4.1-4.542,6.141-10.009,6.125-16.4  C-139.833,80.247-141.874,74.771-145.975,70.325z M-141.025,65.8v-0.024c5.232,5.687,7.857,12.678,7.875,20.975  c-0.016,8.142-2.641,15.107-7.875,20.9c-3.846,4.248-15.088,15.606-33.725,34.074c-0.64,0.634-1.406,0.958-2.3,0.976  c-0.89,0.014-1.665-0.286-2.325-0.9c-20.72-19.243-32.67-30.627-35.85-34.149l-0.025-0.025c-5.152-5.785-7.735-12.743-7.75-20.875  c0.001-8.296,2.593-15.279,7.775-20.95c5.344-5.919,11.819-8.869,19.425-8.85c6.785-0.02,12.677,2.348,17.675,7.1  c5-4.75,10.909-7.117,17.725-7.1C-152.829,56.929-146.371,59.879-141.025,65.8z M-232.625-34.225c0.6-0.451,1.274-0.676,2.025-0.675  h54.55c0.927-0.002,1.719,0.323,2.375,0.975c0.652,0.656,0.977,1.448,0.975,2.375c0.002,0.927-0.323,1.719-0.975,2.375  c-0.656,0.652-1.448,0.977-2.375,0.975h-49.625l1.7,4.3h45.075c0.927-0.002,1.719,0.323,2.375,0.975  c0.652,0.656,0.977,1.448,0.975,2.375c0.002,0.927-0.323,1.719-0.975,2.375c-0.656,0.652-1.448,0.977-2.375,0.975h-42.4l1.725,4.35  h37.825c0.927-0.002,1.719,0.323,2.375,0.975c0.652,0.656,0.977,1.448,0.975,2.375c0.002,0.927-0.323,1.719-0.975,2.375  c-0.656,0.652-1.448,0.977-2.375,0.975h-35.175l1.4,3.55h42.15l10-42.9c0.184-0.761,0.583-1.386,1.2-1.875  c0.611-0.484,1.303-0.726,2.075-0.725h13.45c0.927-0.002,1.719,0.323,2.375,0.975c0.652,0.656,0.977,1.448,0.975,2.375  c0.002,0.927-0.323,1.719-0.975,2.375c-0.656,0.652-1.448,0.977-2.375,0.975h-10.775l-10,42.9c-0.184,0.761-0.584,1.386-1.2,1.875  c-0.611,0.484-1.303,0.726-2.075,0.725h-47.1c-0.683,0.002-1.308-0.189-1.875-0.575c-0.575-0.391-0.991-0.907-1.25-1.55L-224.9-8.1  c-0.009-0.029-0.017-0.054-0.025-0.075c-0.021-0.034-0.038-0.067-0.05-0.1c-0.039-0.106-0.072-0.214-0.1-0.325l-0.025-0.1  l-4.1-10.225c-0.106-0.192-0.189-0.392-0.25-0.6l-4.275-10.8c-0.273-0.698-0.307-1.406-0.1-2.125  C-233.621-33.175-233.221-33.767-232.625-34.225z M-290.85-15.9l0.025-0.025c2.69-2.687,5.932-4.028,9.725-4.025  c3.83,0.001,7.088,1.342,9.775,4.025l0.025,0.025c2.674,2.722,4.007,5.972,4,9.75c0.003,3.793-1.339,7.034-4.025,9.725  c-1.361,1.359-2.87,2.376-4.525,3.05c4.046,0.915,7.621,2.94,10.725,6.075v-0.025c0.285,0.287,0.56,0.579,0.825,0.875  c1.171-0.328,2.404-0.494,3.7-0.5c3.084,0.006,5.818,0.89,8.2,2.65v0.025c0.525,0.385,1.05,0.834,1.575,1.35l0.025,0.025  c2.674,2.722,4.007,5.972,4,9.75c-0.006,2.6-0.647,4.958-1.925,7.075l-0.025,0.05c-0.561,0.911-1.252,1.777-2.075,2.6  c-1.361,1.359-2.87,2.376-4.525,3.05c4.046,0.915,7.621,2.94,10.725,6.075v-0.025c4.418,4.423,6.626,9.765,6.625,16.025  c0,1.358-0.117,2.717-0.35,4.075c-0.141,0.797-0.524,1.455-1.15,1.975c-0.621,0.529-1.338,0.796-2.15,0.8h-37.9  c-0.813-0.004-1.529-0.271-2.15-0.8c-0.146-0.122-0.28-0.255-0.4-0.4c-0.12,0.146-0.253,0.278-0.4,0.4  c-0.621,0.529-1.338,0.796-2.15,0.8h-37.9c-0.813-0.004-1.529-0.271-2.15-0.8c-0.625-0.52-1.009-1.178-1.15-1.975  c-0.233-1.358-0.35-2.717-0.35-4.075c-0.001-6.261,2.207-11.603,6.625-16.025V45.7c3.11-3.141,6.693-5.166,10.75-6.075  c-1.642-0.677-3.142-1.694-4.5-3.05c-2.686-2.691-4.028-5.932-4.025-9.725c-0.007-3.778,1.326-7.028,4-9.75l0.025-0.025  c2.69-2.687,5.932-4.028,9.725-4.025c1.886,0.004,3.645,0.337,5.275,1c0.388-0.467,0.805-0.926,1.25-1.375V12.7  c3.11-3.141,6.693-5.166,10.75-6.075c-1.642-0.677-3.142-1.694-4.5-3.05c-2.686-2.691-4.028-5.932-4.025-9.725  C-294.857-9.928-293.524-13.178-290.85-15.9z M-286.05-11.2l-0.025,0.025c-1.375,1.406-2.067,3.081-2.075,5.025  c0.003,1.94,0.695,3.599,2.075,4.975c1.376,1.38,3.035,2.072,4.975,2.075c1.97,0.001,3.645-0.691,5.025-2.075  c1.38-1.376,2.072-3.035,2.075-4.975c-0.008-1.944-0.699-3.619-2.075-5.025L-276.1-11.2c-1.375-1.367-3.042-2.051-5-2.05  C-283.029-13.247-284.679-12.563-286.05-11.2z M-312.375-102.125c-1.443-1.448-3.185-2.173-5.225-2.175  c-2.01,0.006-3.735,0.731-5.175,2.175l-0.05,0.025c-1.451,1.41-2.176,3.127-2.175,5.15c0.015,1.986,0.757,3.711,2.225,5.175v0.025  c1.441,1.46,3.166,2.193,5.175,2.2c2.039-0.003,3.78-0.736,5.225-2.2c1.444-1.471,2.169-3.205,2.175-5.2  c0.002-2.024-0.714-3.741-2.15-5.15L-312.375-102.125z M-176.1-122.95c0.927-0.002,1.719,0.323,2.375,0.975  c0.652,0.656,0.977,1.448,0.975,2.375c0.002,0.927-0.323,1.719-0.975,2.375c-0.656,0.652-1.448,0.977-2.375,0.975h-71.8  c-0.927,0.002-1.719-0.323-2.375-0.975c-0.652-0.656-0.977-1.448-0.975-2.375c-0.002-0.927,0.323-1.719,0.975-2.375  c0.656-0.652,1.448-0.977,2.375-0.975H-176.1z M-176.1-185.15c0.927-0.002,1.719,0.323,2.375,0.975  c0.652,0.656,0.977,1.448,0.975,2.375c0.002,0.927-0.323,1.719-0.975,2.375c-0.656,0.652-1.448,0.977-2.375,0.975h-71.8  c-0.927,0.002-1.719-0.323-2.375-0.975c-0.652-0.656-0.977-1.448-0.975-2.375c-0.002-0.927,0.323-1.719,0.975-2.375  c0.656-0.652,1.448-0.977,2.375-0.975H-176.1z M-176.1-154.05c0.927-0.002,1.719,0.323,2.375,0.975  c0.652,0.656,0.977,1.448,0.975,2.375c0.002,0.927-0.323,1.719-0.975,2.375c-0.656,0.652-1.448,0.977-2.375,0.975h-71.8  c-0.927,0.002-1.719-0.323-2.375-0.975c-0.652-0.656-0.977-1.448-0.975-2.375c-0.002-0.927,0.323-1.719,0.975-2.375  c0.656-0.652,1.448-0.977,2.375-0.975H-176.1z M-316.725-218.225l-4.975,5.025l5.8,5.8l4.975-5.025L-316.725-218.225z M-51.75-274.4  c0,0.786,0.25,1.469,0.75,2.05c0.165,0.143,0.332,0.285,0.5,0.425c0.59,0.498,0.965,1.123,1.125,1.875  c0.159,0.75,0.067,1.476-0.275,2.175l-4.95,10.125h11.9l-4.925-10.15c-0.307-0.639-0.398-1.306-0.275-2  c0.118-0.706,0.426-1.314,0.925-1.825c0.172-0.171,0.355-0.338,0.55-0.5c0.02-0.02,0.037-0.037,0.05-0.05  c0.577-0.601,0.869-1.309,0.875-2.125c0-0.872-0.309-1.613-0.925-2.225c-0.612-0.616-1.354-0.925-2.225-0.925  c-0.863,0.009-1.613,0.325-2.25,0.95l0.05-0.075C-51.456-276.049-51.756-275.291-51.75-274.4z M-34.325-255.85  c0.342,0.71,0.425,1.443,0.25,2.2c-0.173,0.76-0.565,1.385-1.175,1.875c-0.615,0.486-1.315,0.728-2.1,0.725h-22.6  c-0.785,0.002-1.485-0.239-2.1-0.725c-0.611-0.488-1.002-1.113-1.175-1.875c-0.167-0.769-0.076-1.511,0.275-2.225l6.275-12.85  c-1.184-1.654-1.775-3.546-1.775-5.675c0.006-2.709,0.939-5.018,2.8-6.925c0.017-0.02,0.033-0.045,0.05-0.075  c1.963-1.909,4.28-2.859,6.95-2.85c2.729,0,5.054,0.958,6.975,2.875c1.917,1.921,2.875,4.247,2.875,6.975  c0.005,2.119-0.586,4.002-1.775,5.65L-34.325-255.85z M-26.25-287.35c0-1.267-0.633-1.9-1.9-1.9H-68.8c-1.29,0-1.94,0.633-1.95,1.9  v40.6c0,1.3,0.65,1.95,1.95,1.95h40.65c1.267-0.011,1.9-0.661,1.9-1.95V-287.35z M-123.05-238.175  c0.59,0.498,0.965,1.123,1.125,1.875c0.159,0.75,0.067,1.476-0.275,2.175L-127.15-224h11.9l-4.925-10.15  c-0.307-0.639-0.398-1.306-0.275-2c0.118-0.706,0.426-1.314,0.925-1.825c0.172-0.171,0.355-0.338,0.55-0.5  c0.021-0.02,0.037-0.037,0.05-0.05c0.577-0.601,0.869-1.309,0.875-2.125c0-0.871-0.309-1.613-0.925-2.225  c-0.612-0.616-1.354-0.925-2.225-0.925c-0.863,0.008-1.613,0.325-2.25,0.95l0.05-0.075c-0.606,0.626-0.906,1.384-0.9,2.275  c0,0.786,0.25,1.469,0.75,2.05C-123.385-238.457-123.218-238.315-123.05-238.175z M-98.8-253.6c0-1.267-0.633-1.9-1.9-1.9h-40.65  c-1.29,0-1.939,0.633-1.95,1.9v40.6c0,1.3,0.65,1.95,1.95,1.95h40.65c1.267-0.011,1.9-0.661,1.9-1.95V-253.6z M-121.2-250.5  c2.729,0,5.054,0.958,6.975,2.875c1.917,1.921,2.875,4.247,2.875,6.975c0.005,2.119-0.586,4.002-1.775,5.65l6.25,12.9  c0.342,0.71,0.425,1.443,0.25,2.2c-0.173,0.76-0.565,1.385-1.175,1.875c-0.615,0.486-1.315,0.728-2.1,0.725h-22.6  c-0.785,0.002-1.485-0.239-2.1-0.725c-0.61-0.488-1.002-1.113-1.175-1.875c-0.167-0.769-0.076-1.511,0.275-2.225l6.275-12.85  c-1.184-1.654-1.775-3.546-1.775-5.675c0.006-2.709,0.939-5.018,2.8-6.925c0.017-0.02,0.033-0.045,0.05-0.075  C-126.187-249.559-123.87-250.509-121.2-250.5z M-107.925-285.625h-0.025c3.661,3.616,5.495,8.024,5.5,13.225v10.2h1.75  c5.733,0,8.6,2.867,8.6,8.6v40.6c0,5.777-2.867,8.661-8.6,8.65h-40.65c-5.767,0-8.65-2.883-8.65-8.65v-40.6  c-0.01-5.733,2.873-8.6,8.65-8.6h1.5v-10.2c0.006-5.201,1.839-9.609,5.5-13.225h-0.025c3.657-3.653,8.065-5.478,13.225-5.475  C-115.99-291.103-111.582-289.278-107.925-285.625z M-112.65-280.875h-0.025c-2.343-2.347-5.168-3.522-8.475-3.525  c-3.307,0.002-6.132,1.178-8.475,3.525h-0.025c-2.339,2.317-3.506,5.142-3.5,8.475v10.2h24v-10.2  C-109.145-275.733-110.311-278.558-112.65-280.875z M-57.075-314.625H-57.1c-2.339,2.317-3.505,5.142-3.5,8.475v10.2h32.45  c5.733,0,8.6,2.867,8.6,8.6v40.6c0,5.777-2.867,8.661-8.6,8.65H-68.8c-5.767,0-8.65-2.883-8.65-8.65v-40.6  c-0.01-5.733,2.873-8.6,8.65-8.6h1.5v-10.2c0.005-5.201,1.839-9.609,5.5-13.225h-0.025c3.657-3.653,8.065-5.478,13.225-5.475  c4.999-0.001,9.307,1.724,12.925,5.175c0.664,0.643,1.005,1.426,1.025,2.35c0.022,0.917-0.286,1.709-0.925,2.375  c-0.642,0.674-1.426,1.024-2.35,1.05c-0.924,0.021-1.724-0.287-2.4-0.925c-2.315-2.215-5.074-3.324-8.275-3.325  C-51.907-318.147-54.732-316.972-57.075-314.625z M-440.05-1.35h-22.5V10.9c0.002,0.927-0.323,1.719-0.975,2.375  c-0.656,0.652-1.448,0.977-2.375,0.975h-18.9c-1.934,0.009-2.9,0.992-2.9,2.95v44.5c0.009,1.899,0.976,2.85,2.9,2.85h66.9  c1.949,0,2.932-0.95,2.95-2.85V17.2c0-1.967-0.983-2.95-2.95-2.95h-18.8c-0.927,0.002-1.719-0.323-2.375-0.975  c-0.652-0.656-0.977-1.448-0.975-2.375V-1.35z M-469.25-2.5c0.009-0.461,0.067-0.895,0.175-1.3c0.408-2.833,2.217-4.25,5.425-4.25  H-439c3.3,0,5.15,1.466,5.55,4.4l-0.025-0.05c0.08,0.363,0.122,0.764,0.125,1.2V7.55h15.45c6.433,0,9.65,3.217,9.65,9.65v44.5  c0.018,6.366-3.199,9.55-9.65,9.55h-66.9c-6.409,0-9.609-3.184-9.6-9.55V17.2c0-6.442,3.2-9.659,9.6-9.65h15.55V-2.5z   M-443.55-77.25c0-0.9-0.45-1.35-1.35-1.35h-36.3c-0.921,0-1.388,0.45-1.4,1.35v36.3c0.012,0.9,0.479,1.35,1.4,1.35h36.3  c0.9,0,1.35-0.45,1.35-1.35V-77.25z M-409.8-79.15l-17.55,17.5l17.55,17.55V-79.15z M-408.825-89.625  c0.661-0.652,1.453-0.977,2.375-0.975c0.926,0.006,1.717,0.339,2.375,1c0.652,0.653,0.977,1.436,0.975,2.35V-36  c0.002,0.927-0.323,1.719-0.975,2.375c-0.656,0.652-1.448,0.977-2.375,0.975c-0.927,0.002-1.719-0.323-2.375-0.975l-25.65-25.65  c-0.654-0.661-0.979-1.452-0.975-2.375c-0.002-0.926,0.323-1.717,0.975-2.375L-408.825-89.625z M-485.775-145.55h5.25l-2.025-7.8  h-5.525L-485.775-145.55z M-478.8-138.85h-4.975l2,6.75h4.7L-478.8-138.85z M-466.9-138.85h-4.975l1.725,6.75h3.25V-138.85z   M-460.2-138.85v6.75h5.45l1.725-6.75H-460.2z M-446.1-138.85l-1.725,6.75h4.65l2-6.75H-446.1z M-449.275-153.35H-460.2v7.8h8.9  L-449.275-153.35z M-445.575-167.8H-460.2v7.75h12.65L-445.575-167.8z M-479.375-167.8l2.025,7.75h10.45v-7.75H-479.375z   M-466.9-153.35h-8.725l2.025,7.8h6.7V-153.35z M-436.875-153.35h-5.475l-2.025,7.8h5.2L-436.875-153.35z M-434.9-160.05l2.275-7.75  h-6.025l-1.975,7.75H-434.9z M-441.575-174.5c0.188-0.017,0.379-0.017,0.575,0h6.2l-11.575-15.55h-32.15l-11.625,15.55h6.175  c0.181-0.014,0.355-0.014,0.525,0H-441.575z M-327.475-106.9l-0.05,0.025c2.76-2.756,6.068-4.131,9.925-4.125  c3.882-0.002,7.199,1.364,9.95,4.1l0.025,0.025c2.748,2.72,4.123,6.028,4.125,9.925c0.006,3.805-1.369,7.104-4.125,9.9  c-2.755,2.803-6.08,4.203-9.975,4.2c-3.858,0.007-7.166-1.393-9.925-4.2v0.025c-2.798-2.802-4.19-6.111-4.175-9.925  C-331.698-100.86-330.29-104.177-327.475-106.9z M-336.325-114.625c-0.984,1.046-1.509,2.288-1.575,3.725l0.1,27.55  c0.006,1.413,0.498,2.638,1.475,3.675l33.7,33.7c2.018,2.022,4.001,3.089,5.95,3.2c1.944-0.108,3.911-1.166,5.9-3.175v-0.025  l23.1-23.1h0.025c2.035-2.023,3.109-4.015,3.225-5.975c-0.104-1.95-1.162-3.925-3.175-5.925h-0.025l-33.7-33.75l0.1,0.075  c-1.087-1.001-2.362-1.501-3.825-1.5l-27.45-0.1c-1.489,0.065-2.748,0.59-3.775,1.575  C-336.292-114.658-336.308-114.641-336.325-114.625z M-344.6-110.9c0-0.027,0-0.061,0-0.1c0.089-3.229,1.248-6.005,3.475-8.325  c0.018-0.013,0.035-0.03,0.05-0.05c2.275-2.294,5.1-3.485,8.475-3.575c0.039,0,0.072,0,0.1,0l27.45,0.1  c3.204,0.001,5.996,1.101,8.375,3.3c0.032,0.027,0.065,0.052,0.1,0.075l33.7,33.75h-0.025c3.563,3.534,5.288,7.101,5.175,10.7  c0.092,3.589-1.65,7.155-5.225,10.7h0.025l-23.1,23.1v-0.025c-3.512,3.559-7.062,5.284-10.65,5.175  c-3.583,0.113-7.15-1.604-10.7-5.15l-33.7-33.7c-0.015-0.021-0.032-0.037-0.05-0.05c-2.256-2.353-3.381-5.145-3.375-8.375  L-344.6-110.9z M-383.575-147.15l-0.075,0.05c0.036-0.013,0.069-0.029,0.1-0.05H-383.575z M-369.05-153.975  c1.018-1.035,2.043-2.068,3.075-3.1v0.025l38.575-38.775l-5.8-5.775l-38.6,38.75c-0.977,0.958-1.96,1.925-2.95,2.9  C-372.579-158.516-370.679-156.524-369.05-153.975z M-374.65-150.2c-1.142-1.776-2.466-3.16-3.975-4.15  c-0.706,2.076-1.405,4.151-2.1,6.225C-378.701-148.826-376.675-149.518-374.65-150.2z M-489.3-40.95v-36.3  c-0.012-5.367,2.688-8.05,8.1-8.05h36.3c5.367,0,8.05,2.683,8.05,8.05v36.3c0,5.367-2.683,8.05-8.05,8.05h-36.3  C-486.612-32.9-489.312-35.583-489.3-40.95z M-499.9-169.85c-0.105-0.253-0.181-0.528-0.225-0.825  c-0.022-0.163-0.031-0.321-0.025-0.475c-0.002-0.042-0.002-0.083,0-0.125c0.014-0.458,0.114-0.884,0.3-1.275  c0.033-0.069,0.066-0.136,0.1-0.2c0.06-0.109,0.127-0.218,0.2-0.325l16.675-22.325c0.315-0.426,0.707-0.759,1.175-1  c0.473-0.235,0.973-0.352,1.5-0.35h35.5c0.526-0.003,1.026,0.114,1.5,0.35c0.471,0.243,0.863,0.576,1.175,1l16.35,21.975  c0.428,0.464,0.703,0.998,0.825,1.6c0.074,0.36,0.083,0.727,0.025,1.1l-0.075,0.425c-0.009,0.022-0.017,0.047-0.025,0.075  c-0.014,0.052-0.031,0.102-0.05,0.15l-4.175,14.25l-0.025,0.05c-0.035,0.118-0.076,0.235-0.125,0.35l-4.1,13.85  c-0.021,0.098-0.046,0.198-0.075,0.3l-3.95,13.45c-0.214,0.716-0.623,1.299-1.225,1.75c-0.596,0.45-1.263,0.675-2,0.675h-43.65  c-0.737,0-1.404-0.226-2-0.675c-0.603-0.452-1.011-1.036-1.225-1.75l-3.95-13.45c-0.031-0.107-0.056-0.215-0.075-0.325l-4.05-13.675  c-0.143-0.311-0.234-0.644-0.275-1L-499.9-169.85z M-486.3-167.8h-6.025l2.275,7.75h5.75L-486.3-167.8z M-326.425-208.425  l-2.05,2.05l5.8,5.775l2.025-2.05L-326.425-208.425z M-335.35-208.95l6.2-6.275c0.102-0.118,0.21-0.235,0.325-0.35  c0.079-0.079,0.163-0.153,0.25-0.225l7.3-7.35h-0.025c1.498-1.52,3.039-2.212,4.625-2.075c1.527-0.102,3.043,0.598,4.55,2.1l6.1,6.1  c3.036,3.042,3.061,6.083,0.075,9.125l-14.325,14.425c-0.083,0.083-0.167,0.158-0.25,0.225l-40.7,40.9v0.025  c-1.75,1.75-3.483,3.517-5.2,5.3c-0.061,0.05-0.119,0.1-0.175,0.15c-0.516,0.471-1.033,0.872-1.55,1.2  c-0.829,0.59-1.729,1.016-2.7,1.275l0.2-0.075c-3.617,1.192-7.217,2.417-10.8,3.675c-0.025,0.015-0.05,0.031-0.075,0.05  c-1.808,0.584-3.491,0.301-5.05-0.85c-0.138-0.1-0.271-0.208-0.4-0.325c-0.351-0.35-0.643-0.758-0.875-1.225  c-0.045-0.107-0.087-0.216-0.125-0.325c-0.484-1.253-0.501-2.545-0.05-3.875c0.008-0.025,0.017-0.05,0.025-0.075  c1.192-3.617,2.4-7.233,3.625-10.85v0.025c0.25-0.745,0.567-1.436,0.95-2.075c0.128-0.265,0.287-0.506,0.475-0.725  c0.331-0.456,0.689-0.881,1.075-1.275c1.8-1.8,3.583-3.566,5.35-5.3L-335.5-208.8C-335.446-208.853-335.396-208.903-335.35-208.95z   M6.35,489.275v-77.051c-9.241,0.722-17.233,4.454-23.975,11.2c-3.256,3.252-5.823,6.811-7.7,10.675  c-0.285,0.576-0.702,1.034-1.25,1.375c-0.543,0.347-1.134,0.521-1.775,0.525H-52.6v29.5h24.25c0.641,0.004,1.232,0.179,1.775,0.525  c0.548,0.341,0.965,0.799,1.25,1.375c1.877,3.864,4.444,7.423,7.7,10.675C-10.883,484.821-2.891,488.554,6.35,489.275z M9.7,405.4  c0.927-0.003,1.719,0.322,2.375,0.975c0.652,0.656,0.977,1.448,0.975,2.375v84c0.002,0.927-0.323,1.719-0.975,2.375  c-0.656,0.652-1.448,0.978-2.375,0.975c-12.527,0.002-23.219-4.423-32.075-13.274c-3.272-3.276-5.947-6.817-8.025-10.625h-25.55  c-0.927,0.002-1.719-0.323-2.375-0.976c-0.652-0.655-0.977-1.447-0.975-2.375V432.65c-0.002-0.928,0.323-1.72,0.975-2.375  c0.656-0.652,1.448-0.978,2.375-0.976h25.55c2.078-3.808,4.752-7.349,8.025-10.625C-13.519,409.823-2.827,405.398,9.7,405.4z   M62.825,430.275c0.033,0.033,0.066,0.066,0.1,0.1c0.276,0.28,0.551,0.58,0.825,0.9l0.025,0.024  c4.313,4.859,6.471,10.576,6.475,17.15c-0.001,7.117-2.51,13.2-7.525,18.25v0.024c-0.558,0.555-1.116,1.071-1.675,1.551  l-0.024,0.024c-4.722,3.991-10.246,5.991-16.575,6c-7.048,0-13.082-2.45-18.1-7.35l-0.025-0.025c-0.067-0.066-0.133-0.133-0.2-0.2  V466.7c-5.016-5.05-7.524-11.133-7.525-18.25c0.009-6.329,2.009-11.854,6-16.575l0.025-0.025c0.457-0.524,0.932-1.05,1.425-1.574  c0.029-0.034,0.054-0.067,0.075-0.101c5.056-5.052,11.164-7.576,18.325-7.575c7.126-0.003,13.218,2.522,18.274,7.575  C62.759,430.208,62.792,430.241,62.825,430.275z M58.75,435.725l-0.025-0.024c-0.183-0.205-0.366-0.396-0.55-0.575  c-0.033-0.033-0.066-0.066-0.1-0.1c-0.033-0.034-0.066-0.067-0.101-0.101c-3.742-3.746-8.251-5.621-13.524-5.625  c-5.306,0.002-9.831,1.877-13.575,5.625l0.075-0.1c-0.433,0.466-0.849,0.933-1.25,1.399l-0.025,0.025  c-2.926,3.475-4.384,7.541-4.375,12.2c-0.001,5.283,1.857,9.8,5.575,13.55v-0.025c0.058,0.059,0.117,0.117,0.175,0.176l0.025,0.024  c3.709,3.617,8.167,5.426,13.375,5.425c4.658,0.01,8.726-1.449,12.2-4.375l0.024-0.024c0.434-0.38,0.867-0.788,1.3-1.226V462  c3.718-3.75,5.576-8.267,5.575-13.55C63.554,443.569,61.954,439.328,58.75,435.725z M182.65,474.95  c-0.003-0.928,0.322-1.719,0.975-2.375c0.656-0.652,1.448-0.978,2.375-0.976c0.927-0.002,1.719,0.323,2.375,0.976  c0.652,0.656,0.978,1.447,0.975,2.375V510.6c0.003,0.928-0.322,1.72-0.975,2.375c-0.656,0.652-1.448,0.978-2.375,0.976h-72.2  c-0.927,0.002-1.719-0.323-2.375-0.976c-0.652-0.655-0.977-1.447-0.975-2.375v-72.05c-0.002-0.927,0.322-1.719,0.975-2.375  c0.656-0.652,1.448-0.977,2.375-0.975h37.75c0.928-0.002,1.719,0.322,2.375,0.975c0.652,0.656,0.978,1.448,0.976,2.375  c0.002,0.928-0.323,1.719-0.976,2.375c-0.656,0.652-1.447,0.978-2.375,0.976H117.15v65.35h65.5V474.95z M176.9,444.9  c0.024-0.001,0.05-0.001,0.074,0c2.701-0.039,5.284,0.187,7.75,0.675l-2.774-5.125c-0.436-0.817-0.52-1.667-0.25-2.55  c0.267-0.888,0.809-1.555,1.625-2c0.808-0.438,1.649-0.521,2.524-0.25c0.887,0.26,1.554,0.793,2,1.6l6.851,12.65  c0.1,0.179,0.183,0.37,0.25,0.574c0.026,0.083,0.051,0.166,0.075,0.25c0.066,0.283,0.091,0.567,0.074,0.851  c-0.001,0.44-0.102,0.874-0.3,1.3l-0.075,0.15c-0.043,0.084-0.085,0.167-0.125,0.25c-0.06,0.091-0.118,0.183-0.175,0.274  c-0.068,0.074-0.135,0.149-0.2,0.226c-0.285,0.313-0.627,0.563-1.024,0.75l-10.875,6.274c-0.81,0.461-1.659,0.568-2.55,0.325  c-0.889-0.236-1.563-0.753-2.025-1.55c-0.461-0.807-0.569-1.657-0.325-2.55c0.239-0.889,0.756-1.563,1.55-2.025l4.851-2.8  c-2.164-0.451-4.438-0.65-6.825-0.601c-0.031,0.001-0.056,0.001-0.075,0c-8.041-0.078-15.008,2.813-20.899,8.676  c-3.761,3.756-6.285,8.048-7.575,12.875v-0.025c-0.059,0.214-0.117,0.456-0.175,0.725c-0.009,0.059-0.018,0.117-0.025,0.176  c-0.568,2.24-0.852,4.615-0.85,7.125c0.001,0.613,0.043,1.213,0.125,1.8c0.125,0.91-0.092,1.735-0.65,2.475  c-0.565,0.739-1.307,1.173-2.225,1.3c-0.913,0.127-1.737-0.09-2.476-0.649c-0.738-0.563-1.171-1.306-1.3-2.226  c-0.118-0.88-0.177-1.779-0.175-2.699c0.002-3.091,0.352-6.016,1.05-8.775l-0.025,0.175c0.075-0.389,0.15-0.739,0.226-1.05v-0.05  c1.576-5.974,4.685-11.282,9.325-15.925C158.498,448.339,167.039,444.797,176.9,444.9z M212.725,400.775l-0.024-0.025  c-0.783-0.806-1.75-1.205-2.9-1.2c-1.141,0.004-2.115,0.412-2.925,1.226l0.05-0.075c-0.319,0.34-0.586,0.707-0.8,1.1  c-0.008,0.017-0.017,0.033-0.025,0.05c-0.008,0.018-0.017,0.034-0.024,0.051c-0.252,0.558-0.377,1.157-0.375,1.8  c-0.001,1.139,0.391,2.114,1.175,2.925l0.025,0.025c0.804,0.796,1.771,1.196,2.899,1.199c1.15,0.006,2.117-0.395,2.9-1.199  l0.024-0.025c0.336-0.333,0.611-0.691,0.825-1.075c0.008-0.017,0.017-0.033,0.025-0.05c0.26-0.538,0.385-1.139,0.375-1.8  c0.005-0.708-0.137-1.358-0.425-1.95C213.308,401.412,213.041,401.087,212.725,400.775z M279.9,467.45H270.1  c-0.927,0.002-1.719-0.323-2.375-0.976c-0.651-0.655-0.977-1.447-0.975-2.375c-0.002-0.927,0.323-1.719,0.975-2.375  c0.656-0.651,1.448-0.977,2.375-0.975h13.15c0.927-0.002,1.719,0.323,2.375,0.975c0.652,0.656,0.978,1.448,0.975,2.375v46.851  c0.003,0.927-0.322,1.719-0.975,2.375c-0.656,0.652-1.448,0.977-2.375,0.975H220.3c-0.927,0.002-1.719-0.322-2.375-0.975  c-0.652-0.656-0.977-1.448-0.975-2.375V464.1c-0.002-0.927,0.322-1.719,0.975-2.375c0.656-0.651,1.448-0.977,2.375-0.975h13.65  c0.927-0.002,1.719,0.323,2.375,0.975c0.652,0.656,0.977,1.448,0.975,2.375c0.002,0.928-0.322,1.72-0.975,2.375  c-0.656,0.652-1.448,0.978-2.375,0.976h-10.3V507.6h56.25V467.45z M297.275,441.15l-4.125-7.601c-0.436-0.816-0.52-1.667-0.25-2.55  c0.267-0.888,0.809-1.555,1.625-2c0.808-0.437,1.648-0.521,2.524-0.25c0.887,0.26,1.553,0.793,2,1.6l8.3,15.301  c0.019,0.037,0.035,0.07,0.051,0.1c0.099,0.179,0.183,0.371,0.25,0.575c0.025,0.081,0.051,0.164,0.074,0.25  c0.034,0.142,0.059,0.283,0.075,0.425c0.043,0.423,0.002,0.839-0.125,1.25c-0.008,0.027-0.016,0.052-0.024,0.075l-0.101,0.3  c-0.131,0.326-0.306,0.618-0.524,0.875c-0.339,0.414-0.756,0.73-1.25,0.95l-13.176,7.5c-0.811,0.46-1.66,0.568-2.55,0.325  c-0.881-0.246-1.548-0.771-2-1.575c-0.461-0.809-0.569-1.658-0.325-2.55c0.249-0.882,0.773-1.548,1.575-2l7.425-4.226  c-3.202-0.879-6.61-1.287-10.225-1.225c-0.03,0-0.055,0-0.075,0c-9.973-0.082-18.589,3.492-25.85,10.725  c-4.691,4.688-7.833,10.013-9.425,15.976l-0.025,0.024c-0.854,3.123-1.279,6.415-1.275,9.875c-0.001,0.835,0.041,1.627,0.125,2.375  c0.107,0.911-0.126,1.728-0.699,2.45c-0.581,0.727-1.331,1.143-2.25,1.25c-0.912,0.108-1.729-0.125-2.45-0.7  c-0.726-0.579-1.143-1.329-1.25-2.25c-0.116-0.984-0.174-2.026-0.175-3.125c0.004-4.073,0.513-7.948,1.524-11.625l-0.024,0.025  c1.874-7.104,5.599-13.446,11.175-19.025c8.588-8.55,18.779-12.774,30.575-12.675c0.024,0,0.05,0,0.074,0  C290.265,439.955,293.864,440.339,297.275,441.15z M212.725,348.275l-0.024-0.025c-0.783-0.806-1.75-1.205-2.9-1.2  c-1.129,0.004-2.096,0.403-2.899,1.2l-0.025,0.025c-0.784,0.811-1.176,1.785-1.175,2.925c-0.002,0.642,0.123,1.242,0.375,1.8  c0.009,0.017,0.017,0.033,0.024,0.05c0.009,0.017,0.018,0.033,0.025,0.05c0.216,0.393,0.482,0.759,0.8,1.101l-0.05-0.075  c0.81,0.813,1.784,1.222,2.925,1.225c1.15,0.006,2.117-0.395,2.9-1.199l0.024-0.025c0.313-0.31,0.58-0.635,0.801-0.975  c0.007-0.018,0.015-0.034,0.024-0.051c0.271-0.574,0.405-1.208,0.4-1.899c0.01-0.662-0.115-1.262-0.375-1.8  c-0.009-0.017-0.017-0.034-0.025-0.051C213.336,348.966,213.061,348.607,212.725,348.275z M161.45,377.35  c0.005-0.583-0.087-1.133-0.275-1.649c-0.038-0.077-0.08-0.16-0.125-0.25c-0.22-0.357-0.494-0.698-0.825-1.025  c-0.788-0.793-1.764-1.185-2.925-1.175c-1.127-0.001-2.094,0.382-2.899,1.15c-0.017,0.017-0.033,0.033-0.051,0.05  c-0.768,0.806-1.15,1.772-1.149,2.899c-0.01,1.162,0.382,2.137,1.175,2.926c0.81,0.813,1.784,1.222,2.925,1.225  c1.15,0.005,2.117-0.395,2.9-1.2c0.033-0.021,0.066-0.046,0.1-0.075c0.309-0.291,0.559-0.616,0.75-0.975  c0.009-0.017,0.017-0.033,0.025-0.05C161.323,378.651,161.448,378.035,161.45,377.35z M149.6,369.7  c0.017-0.018,0.033-0.034,0.051-0.05c2.117-2.066,4.667-3.1,7.649-3.101c3.039,0.01,5.598,1.052,7.675,3.125  c0.058,0.058,0.116,0.116,0.176,0.175L199.1,352.8c-0.065-0.521-0.099-1.055-0.1-1.6c0.001-2.982,1.034-5.532,3.1-7.65l0.025-0.024  c2.124-2.12,4.683-3.179,7.675-3.176c3.037,0.006,5.596,1.063,7.675,3.176l0.025,0.024c0.839,0.847,1.514,1.763,2.025,2.75  c0.006,0.02,0.015,0.036,0.024,0.05c0.723,1.449,1.09,3.066,1.101,4.851c-0.005,1.759-0.363,3.375-1.075,4.85  c-0.035,0.058-0.068,0.116-0.101,0.175c-0.497,0.922-1.155,1.797-1.975,2.625l-0.025,0.025c-2.079,2.111-4.638,3.17-7.675,3.175  c-2.992,0.004-5.551-1.055-7.675-3.175c-0.016-0.028-0.032-0.054-0.05-0.075l-34,17.101c0.048,0.469,0.073,0.952,0.075,1.449  c0,0.57-0.033,1.12-0.101,1.65l34.025,17.1c0.018-0.021,0.034-0.046,0.05-0.074c2.124-2.12,4.683-3.179,7.675-3.176  c3.037,0.006,5.596,1.063,7.675,3.176l0.025,0.024c0.819,0.828,1.478,1.703,1.975,2.625c0.032,0.06,0.065,0.118,0.101,0.175  c0.712,1.475,1.07,3.092,1.075,4.851c-0.011,1.784-0.378,3.4-1.101,4.85c-0.01,0.014-0.019,0.031-0.024,0.05  c-0.512,0.987-1.187,1.904-2.025,2.75l-0.025,0.025c-2.079,2.111-4.638,3.17-7.675,3.175c-2.992,0.004-5.551-1.055-7.675-3.175  l-0.025-0.025c-2.065-2.117-3.099-4.667-3.1-7.649c0.001-0.546,0.034-1.079,0.1-1.601L165,384.975  c-0.033,0.035-0.066,0.068-0.1,0.101L165,385c-2.084,2.128-4.65,3.195-7.7,3.2c-2.992,0.003-5.551-1.056-7.675-3.175  c-2.074-2.078-3.115-4.637-3.125-7.676C146.501,374.368,147.534,371.817,149.6,369.7z M30.45,340.325  c-0.415,0.656-0.99,1.114-1.725,1.375c-0.735,0.265-1.468,0.273-2.2,0.024c-0.735-0.248-1.319-0.698-1.75-1.35  c-0.967-1.509-1.917-3-2.85-4.475v-0.025c-1.895-3.004-3.819-5.979-5.775-8.925v20.175l17.55,8.85V335.1  C32.617,336.845,31.533,338.586,30.45,340.325z M7.85,314.45h0.025c-0.166-0.247-0.324-0.497-0.475-0.75l-15.5,7.774v33.75  l17.55-8.175v-30.175C8.905,316.047,8.372,315.238,7.85,314.45z M57.95,312.625l-14.825,7.45c-0.933,1.416-1.841,2.833-2.725,4.25  v31.649l17.55-8.85V312.625z M26.95,291.65c-1.791-0.003-3.308,0.631-4.55,1.899l-0.025,0.025c-1.277,1.272-1.919,2.798-1.925,4.575  c-0.002,1.79,0.631,3.307,1.9,4.55l0.05,0.05c1.243,1.269,2.759,1.902,4.55,1.9c1.781-0.011,3.322-0.652,4.625-1.926L31.6,302.7  c1.237-1.245,1.854-2.762,1.85-4.55c-0.005-1.764-0.622-3.28-1.85-4.551c-0.017-0.016-0.033-0.032-0.05-0.05  C30.253,292.294,28.719,291.66,26.95,291.65z M17.6,288.85l0.025-0.024c2.552-2.581,5.661-3.873,9.325-3.875  c3.607-0.011,6.724,1.272,9.35,3.85l0.05,0.05c2.538,2.587,3.805,5.688,3.8,9.301c-0.003,3.666-1.278,6.774-3.825,9.324L36.3,307.5  c-2.625,2.577-5.742,3.86-9.35,3.85c-3.652-0.002-6.752-1.285-9.3-3.85c-0.017-0.017-0.033-0.033-0.05-0.05  c-2.564-2.548-3.848-5.647-3.85-9.3C13.744,294.539,15.027,291.438,17.6,288.85z M12.575,289.225V289.2  c-2.23,3.349-3.164,7.032-2.8,11.05H9.8c0.224,2.641,0.891,5.141,2,7.5l0.025,0.05c0.016,0.034,0.032,0.067,0.05,0.101  c0.011,0.024,0.019,0.05,0.025,0.074c0.417,0.938,0.926,1.863,1.525,2.775h0.025c0.7,1.063,1.417,2.154,2.15,3.275l0.05,0.1  c0.025,0.03,0.05,0.063,0.075,0.1c1.447,2.2,2.897,4.383,4.35,6.551c2.541,3.785,5.033,7.619,7.475,11.5  c1.6-2.564,3.2-5.131,4.8-7.7c0.563-0.903,1.138-1.819,1.725-2.75c0.05-0.076,0.1-0.151,0.15-0.226  c0.038-0.062,0.079-0.12,0.125-0.175c1.058-1.75,2.158-3.5,3.3-5.25c0.127-0.283,0.31-0.566,0.55-0.85  c1.436-2.286,2.77-4.661,4-7.125c1.756-3.542,2.473-7.301,2.15-11.275l0.025,0.025c-0.303-3.442-1.553-6.459-3.75-9.05l-0.025-0.025  c-0.407-0.468-0.815-0.935-1.225-1.4c-2.468-2.468-5.427-4.067-8.875-4.8l0.075,0.025c-3.482-0.677-6.865-0.344-10.15,1l0.025-0.025  C17.194,284.06,14.569,286.243,12.575,289.225z M17.85,276.525l0.025-0.025c4.515-1.856,9.165-2.323,13.95-1.4l0.075,0.025  c4.751,1.001,8.827,3.201,12.225,6.6c0.049,0.059,0.099,0.117,0.15,0.176c0.467,0.533,0.933,1.066,1.4,1.6l0.025,0.025  c3.12,3.67,4.896,7.944,5.325,12.824l0.024,0.025c0.366,4.659-0.351,9.093-2.149,13.3L59.8,304.2c0.707-0.353,1.44-0.444,2.2-0.275  c0.768,0.168,1.4,0.56,1.9,1.175c0.498,0.617,0.748,1.317,0.75,2.101v42c0,0.629-0.166,1.212-0.5,1.75  c-0.337,0.545-0.787,0.962-1.351,1.25l-24.25,12.2c-0.451,0.234-0.951,0.351-1.5,0.35H36.8c-0.16-0.012-0.319-0.036-0.475-0.075  c-0.066-0.014-0.133-0.03-0.2-0.05c-0.28-0.071-0.546-0.18-0.8-0.325L12.75,352.95l-22.775,10.6c-0.708,0.321-1.442,0.388-2.2,0.2  c-0.753-0.178-1.37-0.569-1.85-1.175c-0.482-0.61-0.724-1.303-0.725-2.075v-41.1c0-0.63,0.167-1.214,0.5-1.75  c0.334-0.543,0.784-0.959,1.35-1.25l17.475-8.775c-0.731-2.168-1.198-4.427-1.4-6.775c-0.503-5.582,0.797-10.698,3.9-15.35v-0.025  C9.764,281.391,13.372,278.407,17.85,276.525z M118.15,177.4v20.149c-0.001,1.854-0.168,3.638-0.5,5.351  c0.935,0.546,2.002,0.813,3.199,0.8c1.842-0.004,3.417-0.662,4.726-1.976c1.313-1.309,1.971-2.884,1.975-4.725v-13.45  c-0.004-1.841-0.662-3.416-1.975-4.725c-1.309-1.313-2.884-1.972-4.726-1.976C119.863,176.84,118.963,177.022,118.15,177.4z   M72.55,170.05v27.5c0.001,5.371,1.893,9.946,5.675,13.726c3.553,3.554,7.786,5.462,12.7,5.725c0.347,0,0.705,0,1.075,0  c0.029,0,0.054,0,0.075,0h0.1c5.277-0.059,9.794-1.967,13.55-5.725h0.025c3.804-3.78,5.704-8.354,5.7-13.726v-27.5H72.55z   M56.45,183.55V197c0.004,1.841,0.662,3.416,1.975,4.725c1.309,1.313,2.884,1.972,4.726,1.976c1.174,0.012,2.241-0.246,3.199-0.775  c-0.333-1.725-0.5-3.517-0.5-5.375v-20.175c-0.826-0.36-1.726-0.535-2.699-0.525c-1.842,0.004-3.417,0.662-4.726,1.976  C57.112,180.134,56.454,181.709,56.45,183.55z M65.85,166.7c-0.002-0.928,0.323-1.719,0.976-2.375  c0.656-0.652,1.447-0.978,2.375-0.976h45.6c0.928-0.002,1.719,0.323,2.375,0.976c0.652,0.656,0.978,1.447,0.976,2.375v3.7  c0.862-0.162,1.762-0.245,2.699-0.25c3.692-0.004,6.851,1.304,9.476,3.925c2.62,2.624,3.929,5.783,3.925,9.475V197  c0.004,3.692-1.305,6.851-3.925,9.475c-2.625,2.621-5.783,3.929-9.476,3.926c-1.972-0.011-3.78-0.377-5.425-1.101  c-1.233,2.418-2.892,4.659-4.975,6.726h0.024c-4.277,4.275-9.285,6.767-15.024,7.475v18.55h11.5  c0.927-0.002,1.719,0.323,2.375,0.976c0.652,0.655,0.977,1.447,0.975,2.375c0.002,0.927-0.322,1.719-0.975,2.375  c-0.656,0.651-1.448,0.977-2.375,0.975h-29.8c-0.928,0.002-1.72-0.323-2.375-0.975c-0.652-0.656-0.978-1.448-0.976-2.375  c-0.002-0.928,0.323-1.72,0.976-2.375c0.655-0.652,1.447-0.978,2.375-0.976h11.6v-18.5c-5.848-0.683-10.939-3.191-15.275-7.524  c-2.065-2.068-3.716-4.31-4.949-6.726c-1.646,0.724-3.438,1.09-5.375,1.101c-3.692,0.003-6.851-1.305-9.476-3.926  c-2.62-2.624-3.929-5.782-3.925-9.475v-13.45c-0.004-3.691,1.305-6.851,3.925-9.475c2.625-2.621,5.783-3.929,9.476-3.925  c0.933,0.005,1.833,0.096,2.699,0.274V166.7z M21.15,133.8c0-1.825-0.8-2.842-2.4-3.05v43.45c0.003,1.494-0.188,2.778-0.575,3.85  V178c-1.123,3.931-4.198,5.896-9.225,5.9H-34.9c0.284,0.331,0.501,0.723,0.65,1.175c0.452,0.848,1.401,1.272,2.85,1.274h49.5  c1.424,0,2.374-0.434,2.85-1.3c0.13-0.511,0.197-1.095,0.2-1.75V133.8z M0.15,136.6c0,0.233-0.033,0.5-0.1,0.801  c-0.066,0.267-0.183,0.533-0.35,0.8l-15.35,32.55c-0.333,0.6-0.85,1.083-1.55,1.45c-0.633,0.399-1.4,0.6-2.3,0.6  c-0.833-0.066-1.567-0.467-2.2-1.2c-0.6-0.733-0.917-1.649-0.95-2.75c0-0.166,0.017-0.333,0.05-0.5  c0.067-0.166,0.15-0.316,0.25-0.449l13.9-28.2h-14.9c-0.967,0-1.767-0.316-2.4-0.95c-0.667-0.667-1-1.45-1-2.35  c0-0.934,0.333-1.7,1-2.301c0.633-0.633,1.433-0.966,2.4-1l20.1,0.101c0.967,0.066,1.767,0.416,2.4,1.05S0.117,135.667,0.15,136.6z   M8.95,121.6h-4.3v3.65c0.002,0.927-0.323,1.719-0.975,2.375c-0.656,0.652-1.448,0.978-2.375,0.975  c-0.927,0.003-1.719-0.322-2.375-0.975c-0.652-0.656-0.977-1.448-0.975-2.375v-3.65h-9.4v3.65c0.002,0.927-0.323,1.719-0.975,2.375  c-0.656,0.652-1.448,0.978-2.375,0.975c-0.927,0.003-1.719-0.322-2.375-0.975c-0.652-0.656-0.977-1.448-0.975-2.375v-3.65h-9.35  v3.65c0.002,0.927-0.323,1.719-0.975,2.375c-0.656,0.652-1.448,0.978-2.375,0.975c-0.927,0.003-1.719-0.322-2.375-0.975  c-0.652-0.656-0.977-1.448-0.975-2.375v-3.65h-6.3c-2.083,0-3.133,1.017-3.15,3.051v49.55c0.003,0.639,0.079,1.188,0.225,1.649  v0.051c0.472,0.869,1.447,1.303,2.925,1.3H8.95c1.451,0.003,2.409-0.431,2.875-1.3v-0.051c0.146-0.461,0.221-1.011,0.225-1.649  v-49.55C12.042,122.616,11.008,121.6,8.95,121.6z M4.65,109.25v5.65h4.3c6.323,0,9.59,3.033,9.8,9.1c6.067,0.21,9.1,3.477,9.1,9.8  v49.5c0.003,1.429-0.155,2.679-0.475,3.75c-0.016,0.045-0.032,0.095-0.05,0.15c-1.185,3.9-4.26,5.851-9.225,5.85h-49.5  c-5.098,0.002-8.182-1.973-9.25-5.925c-0.279-0.879-0.204-1.729,0.225-2.55c0.127-0.25,0.277-0.475,0.45-0.675H-40.5  c-5.067-0.004-8.159-1.97-9.275-5.9v0.05c-0.387-1.071-0.579-2.355-0.575-3.85v-49.55c-0.017-6.5,3.266-9.75,9.85-9.75h6.3v-5.65  c-0.002-0.927,0.323-1.719,0.975-2.375c0.656-0.652,1.448-0.978,2.375-0.975c0.927-0.003,1.719,0.322,2.375,0.975  c0.652,0.656,0.977,1.448,0.975,2.375v5.65h9.35v-5.65c-0.002-0.927,0.323-1.719,0.975-2.375c0.656-0.652,1.448-0.978,2.375-0.975  c0.927-0.003,1.719,0.322,2.375,0.975c0.652,0.656,0.977,1.448,0.975,2.375v5.65h9.4v-5.65c-0.002-0.927,0.323-1.719,0.975-2.375  c0.656-0.652,1.448-0.978,2.375-0.975c0.927-0.003,1.719,0.322,2.375,0.975C4.327,107.531,4.652,108.323,4.65,109.25z M231,1.35  h22.25L231-15.35V1.35z M241.55,110.45v43.5h14.05v-43.5H241.55z M172.95,179.55c-0.928,0.002-1.719-0.322-2.375-0.975  c-0.652-0.656-0.978-1.448-0.976-2.375c-0.002-0.928,0.323-1.719,0.976-2.375c0.656-0.652,1.447-0.978,2.375-0.976H260.1  c0.928-0.002,1.72,0.323,2.375,0.976c0.652,0.656,0.978,1.447,0.976,2.375c0.002,0.927-0.323,1.719-0.976,2.375  c-0.655,0.652-1.447,0.977-2.375,0.975H172.95z M191.95,127.25H177.9v26.7h14.05V127.25z M175.55,120.55h18.7  c2.934-0.392,4.4,1.259,4.4,4.95v30.2c0,3.691-1.467,5.342-4.4,4.95h-18.7c-2.899,0.425-4.35-1.225-4.35-4.95v-30.2  C171.2,121.774,172.65,120.124,175.55,120.55z M234.85,108.25c0-3.099,1.467-4.599,4.4-4.5h18.85c2.801-0.3,4.2,1.2,4.2,4.5v47.65  c0,3.612-1.399,5.196-4.2,4.75h-18.85c-2.934,0.286-4.4-1.297-4.4-4.75V108.25z M223.85,92.7H209.8v60.8h14.05V92.7z M203.1,91.2  c0-4.05,1.4-5.783,4.2-5.2h18.9c2.899-0.51,4.35,1.224,4.35,5.2V155c0,3.977-1.45,5.71-4.35,5.2h-18.9c-2.8,0.582-4.2-1.151-4.2-5.2  V91.2z M249.95,31.3c0.927-0.002,1.719,0.323,2.375,0.975c0.652,0.656,0.977,1.448,0.975,2.375c0.002,0.927-0.322,1.719-0.975,2.375  c-0.656,0.652-1.448,0.977-2.375,0.975H188.5c-0.927,0.002-1.719-0.323-2.375-0.975c-0.652-0.656-0.978-1.448-0.975-2.375  c-0.003-0.927,0.322-1.719,0.975-2.375c0.656-0.652,1.448-0.977,2.375-0.975H249.95z M249.95,44.65  c0.927-0.002,1.719,0.323,2.375,0.975c0.652,0.656,0.977,1.448,0.975,2.375c0.002,0.927-0.322,1.719-0.975,2.375  c-0.656,0.652-1.448,0.978-2.375,0.975H188.5c-0.927,0.003-1.719-0.322-2.375-0.975c-0.652-0.656-0.978-1.448-0.975-2.375  c-0.003-0.927,0.322-1.719,0.975-2.375c0.656-0.652,1.448-0.977,2.375-0.975H249.95z M252.325,23.675  c-0.656,0.652-1.448,0.977-2.375,0.975H188.5c-0.927,0.002-1.719-0.323-2.375-0.975c-0.652-0.656-0.978-1.448-0.975-2.375  c-0.003-0.927,0.322-1.719,0.975-2.375c0.656-0.652,1.448-0.977,2.375-0.975h61.45c0.927-0.002,1.719,0.323,2.375,0.975  c0.652,0.656,0.977,1.448,0.975,2.375C253.302,22.227,252.978,23.019,252.325,23.675z M460,170.05v80.8h81v-80.8H460z M558.4,355.25  c0.501,2.757,0.751,5.657,0.75,8.7c-0.009,5.057-0.733,9.765-2.176,14.125c0.692-0.668,1.367-1.385,2.025-2.15l0.025-0.024  c4.954-5.716,7.729-12.482,8.324-20.301c0.071-0.87,0.43-1.604,1.075-2.199c0.645-0.598,1.403-0.897,2.275-0.9h11.75v-51.1h-82.8  v51.1H555.1c0.808-0.003,1.524,0.256,2.15,0.775C557.873,353.799,558.257,354.457,558.4,355.25z M520.65,333.35  c-2-0.066-3.667-0.733-5-2c-1.367-1.333-2.067-2.966-2.101-4.899c0.033-2.033,0.733-3.717,2.101-5.05c1.333-1.301,3-1.983,5-2.051  c2,0.067,3.649,0.767,4.949,2.101c1.301,1.366,1.983,3.066,2.051,5.1c-0.067,1.9-0.75,3.5-2.051,4.8  C524.3,332.616,522.65,333.283,520.65,333.35z M540.15,319.35c2,0.067,3.649,0.767,4.949,2.101c1.301,1.366,1.983,3.066,2.051,5.1  c-0.067,1.9-0.75,3.5-2.051,4.8c-1.3,1.267-2.949,1.934-4.949,2c-2-0.066-3.667-0.733-5-2c-1.367-1.333-2.067-2.966-2.101-4.899  c0.033-2.033,0.733-3.717,2.101-5.05C536.483,320.1,538.15,319.417,540.15,319.35z M559.65,319.35c2,0.067,3.649,0.767,4.949,2.101  c1.301,1.366,1.983,3.066,2.051,5.1c-0.067,1.9-0.75,3.5-2.051,4.8c-1.3,1.267-2.949,1.934-4.949,2c-2-0.066-3.667-0.733-5-2  c-1.367-1.333-2.067-2.966-2.101-4.899c0.033-2.033,0.733-3.717,2.101-5.05C555.983,320.1,557.65,319.417,559.65,319.35z   M585.8,294.7c0.928-0.002,1.719,0.322,2.375,0.975c0.652,0.656,0.978,1.448,0.976,2.375v57.8c0.002,0.928-0.323,1.72-0.976,2.375  c-0.656,0.652-1.447,0.978-2.375,0.976h-12.1c-1.169,8.005-4.369,15.029-9.601,21.075l-0.024,0.024  c-4.289,4.989-9.14,8.381-14.55,10.175c-0.703,0.237-1.403,0.246-2.101,0.025c-0.689-0.224-1.248-0.633-1.675-1.225  c-0.434-0.6-0.65-1.266-0.65-2c0-0.727,0.217-1.385,0.65-1.976c4.482-6.032,6.716-13.148,6.7-21.35  c-0.001-1.631-0.084-3.215-0.25-4.75h-55.9c-0.927,0.002-1.719-0.323-2.375-0.976c-0.652-0.655-0.977-1.447-0.975-2.375v-57.8  c-0.002-0.927,0.322-1.719,0.975-2.375c0.656-0.652,1.448-0.977,2.375-0.975H585.8z M474,205.8v29.5h29.55v-29.5H474z   M468.275,200.075c0.655-0.652,1.447-0.978,2.375-0.976h36.25c0.927-0.002,1.719,0.323,2.375,0.976  c0.651,0.656,0.977,1.447,0.975,2.375v36.2c0.002,0.927-0.323,1.719-0.975,2.375c-0.656,0.651-1.448,0.977-2.375,0.975h-36.25  c-0.928,0.002-1.72-0.323-2.375-0.975c-0.652-0.656-0.978-1.448-0.976-2.375v-36.2C467.298,201.522,467.623,200.731,468.275,200.075  z M361.925,189.1h0.025c1.498,1.597,3.332,2.396,5.5,2.4c2.063-0.027,3.888-0.844,5.475-2.45v-0.024  c1.501-1.497,2.259-3.255,2.275-5.275c0.008-2.153-0.709-3.995-2.15-5.525c-1.619-1.474-3.485-2.215-5.6-2.225  c-2.229-0.014-4.111,0.711-5.65,2.175l0.15-0.125c-1.476,1.565-2.209,3.466-2.2,5.7C359.757,185.8,360.481,187.583,361.925,189.1z   M357.05,193.7h0.025c-2.69-2.816-4.032-6.134-4.025-9.95c0.009-4.032,1.342-7.466,4-10.3c0.054-0.043,0.104-0.084,0.15-0.125  c2.795-2.67,6.212-4.012,10.25-4.025c3.818-0.01,7.186,1.315,10.1,3.976c0.04,0.042,0.082,0.084,0.125,0.125  c2.809,2.847,4.217,6.297,4.226,10.35c0.016,3.847-1.393,7.188-4.226,10.025v-0.025c-2.946,2.994-6.354,4.478-10.225,4.45  C363.352,198.204,359.885,196.704,357.05,193.7z M367.45,138.2c2.484,0.002,4.843,0.186,7.075,0.55  c0.812,0.127,1.486,0.502,2.024,1.125c0.534,0.631,0.801,1.356,0.8,2.175v8.925c2.349,0.679,4.599,1.611,6.75,2.801l6.301-6.301  c0.605-0.6,1.331-0.925,2.175-0.975c0.837-0.047,1.587,0.195,2.25,0.725c1.71,1.356,3.352,2.831,4.925,4.426  c0.034,0.032,0.067,0.065,0.1,0.1c1.753,1.657,3.328,3.474,4.726,5.45c0.473,0.681,0.673,1.431,0.6,2.25  c-0.069,0.807-0.394,1.499-0.975,2.075l-6.4,6.274c1.174,2.078,2.099,4.277,2.775,6.601h8.774c0.819-0.001,1.544,0.266,2.176,0.8  c0.622,0.531,0.997,1.198,1.125,2c0.364,2.215,0.548,4.448,0.55,6.7c-0.003,2.588-0.186,4.996-0.55,7.225  c-0.128,0.812-0.503,1.487-1.125,2.025c-0.632,0.533-1.356,0.8-2.176,0.8h-8.824c-0.711,2.347-1.644,4.597-2.801,6.75l6.101,6.325  c0.576,0.604,0.885,1.321,0.925,2.149c0.044,0.836-0.189,1.586-0.7,2.25c-1.269,1.618-2.66,3.218-4.175,4.8  c-0.02,0.016-0.036,0.032-0.05,0.051c-1.715,1.704-3.481,3.305-5.3,4.8c-0.668,0.559-1.435,0.817-2.301,0.774  c-0.87-0.044-1.611-0.377-2.225-1l-6.275-6.425c-2.026,1.149-4.151,2.058-6.375,2.726v8.8c0.001,0.848-0.282,1.589-0.85,2.225  c-0.57,0.637-1.278,1.004-2.125,1.101c-2.185,0.248-4.493,0.373-6.925,0.375c-2.397-0.002-4.689-0.127-6.875-0.375  c-0.847-0.097-1.555-0.464-2.125-1.101c-0.568-0.636-0.852-1.377-0.851-2.225v-8.8c-2.221-0.667-4.346-1.576-6.375-2.726l-6.1,6.375  c-0.594,0.63-1.318,0.979-2.175,1.05c-0.862,0.065-1.637-0.168-2.325-0.699c-1.93-1.513-3.755-3.129-5.475-4.851l-0.025-0.024  c-1.636-1.599-3.094-3.216-4.375-4.851c-0.524-0.681-0.757-1.447-0.7-2.3c0.06-0.842,0.393-1.558,1-2.15l6.25-6.25  c-1.25-2.158-2.226-4.416-2.925-6.774H325.6c-0.818,0-1.544-0.267-2.175-0.8c-0.623-0.538-0.998-1.214-1.125-2.025  c-0.364-2.229-0.548-4.637-0.55-7.225c0.002-2.252,0.186-4.485,0.55-6.7c0.127-0.802,0.502-1.469,1.125-2  c0.631-0.534,1.356-0.801,2.175-0.8h8.775c0.673-2.316,1.59-4.509,2.75-6.575l-6.375-6.275c-0.592-0.581-0.926-1.281-1-2.1  c-0.067-0.822,0.141-1.572,0.625-2.25c1.397-1.977,2.973-3.793,4.725-5.45c0.033-0.033,0.066-0.067,0.101-0.1  c1.573-1.595,3.215-3.07,4.925-4.426c0.67-0.531,1.428-0.772,2.275-0.725c0.846,0.048,1.57,0.373,2.175,0.975l6.274,6.275  c2.115-1.183,4.365-2.107,6.75-2.775v-8.925c0-0.818,0.267-1.544,0.801-2.175c0.538-0.623,1.213-0.998,2.024-1.125  C362.658,138.386,365,138.202,367.45,138.2z M370.65,145.025c-1.038-0.085-2.104-0.127-3.2-0.125  c-1.074-0.002-2.125,0.04-3.15,0.125v8.574c-0.003,0.796-0.262,1.504-0.774,2.125c-0.505,0.615-1.147,0.999-1.926,1.15  c-3.439,0.684-6.556,1.983-9.35,3.9c-0.666,0.447-1.399,0.631-2.2,0.55c-0.805-0.069-1.496-0.386-2.075-0.95L342,154.4  c-0.712,0.659-1.412,1.343-2.1,2.05c-0.036,0.032-0.069,0.065-0.101,0.1c-0.778,0.729-1.512,1.496-2.2,2.3l6.15,6.051  c0.578,0.572,0.902,1.264,0.975,2.074c0.081,0.811-0.111,1.553-0.574,2.226c-1.907,2.759-3.199,5.825-3.875,9.2  c-0.151,0.775-0.535,1.417-1.15,1.925c-0.621,0.513-1.33,0.771-2.125,0.774h-8.45c-0.067,0.93-0.101,1.863-0.1,2.801  c-0.002,1.158,0.04,2.275,0.125,3.35H337c0.796-0.003,1.504,0.247,2.125,0.75c0.612,0.513,0.996,1.162,1.15,1.95  c0.681,3.352,2.022,6.468,4.024,9.35c0.472,0.676,0.672,1.418,0.601,2.226c-0.082,0.8-0.416,1.483-1,2.05l-5.95,5.95  c0.599,0.662,1.232,1.32,1.899,1.975l0.025,0.025c0.831,0.829,1.689,1.629,2.575,2.399l5.825-6.075  c0.568-0.598,1.26-0.939,2.074-1.024c0.818-0.086,1.568,0.105,2.25,0.575c2.76,1.907,5.768,3.199,9.025,3.875  c0.78,0.165,1.422,0.557,1.925,1.175c0.501,0.611,0.751,1.312,0.75,2.1v8.325c1.026,0.051,2.076,0.075,3.15,0.075  c1.095,0,2.161-0.024,3.2-0.075v-8.325c-0.001-0.788,0.249-1.488,0.75-2.1c0.503-0.618,1.145-1.01,1.925-1.175  c3.258-0.676,6.266-1.968,9.024-3.875c0.673-0.464,1.415-0.655,2.226-0.575c0.811,0.072,1.502,0.397,2.075,0.975l5.949,6.101  c0.821-0.751,1.63-1.526,2.426-2.325c0.017-0.017,0.033-0.033,0.05-0.05c0.636-0.67,1.244-1.345,1.825-2.025l-5.75-5.975  c-0.537-0.563-0.846-1.229-0.926-2c-0.078-0.767,0.088-1.475,0.5-2.125c1.858-2.943,3.175-6.127,3.95-9.551  c0.173-0.76,0.564-1.385,1.175-1.875c0.615-0.485,1.315-0.728,2.101-0.725h8.425c0.085-1.074,0.126-2.191,0.125-3.35  c0.001-0.938-0.032-1.871-0.1-2.801h-8.45c-0.795-0.003-1.504-0.262-2.125-0.774c-0.615-0.508-0.999-1.149-1.15-1.925  c-0.674-3.376-1.966-6.442-3.875-9.2c-0.462-0.675-0.653-1.417-0.575-2.226c0.074-0.8,0.399-1.483,0.976-2.05l6.175-6.05  c-0.7-0.816-1.442-1.592-2.225-2.325c-0.031-0.034-0.064-0.067-0.101-0.1c-0.691-0.711-1.4-1.395-2.125-2.05l-5.975,5.975  c-0.564,0.557-1.239,0.874-2.025,0.95c-0.789,0.082-1.514-0.093-2.175-0.525c-2.896-1.93-6.03-3.237-9.4-3.925  c-0.787-0.154-1.438-0.538-1.949-1.15c-0.503-0.62-0.753-1.329-0.75-2.125V145.025z M405.425,26c0.818-0.436,1.668-0.519,2.55-0.25  c0.881,0.268,1.539,0.81,1.976,1.625c0.437,0.817,0.52,1.667,0.25,2.55c-0.27,0.879-0.811,1.538-1.625,1.975  c-2.659,1.426-5.151,3.276-7.476,5.55c-0.149,0.213-0.324,0.421-0.524,0.625c-6.318,6.344-9.477,14.02-9.476,23.024  c0.004,9.074,3.229,16.833,9.676,23.275h-0.025c6.48,6.416,14.247,9.624,23.3,9.625c9.072,0.002,16.797-3.173,23.175-9.525  c0.034-0.033,0.067-0.066,0.101-0.1c6.446-6.442,9.672-14.201,9.675-23.275c-0.002-9.076-3.228-16.851-9.675-23.325  c-2.963-2.968-6.196-5.243-9.7-6.825c-0.839-0.377-1.422-0.994-1.75-1.85c-0.33-0.867-0.306-1.725,0.075-2.575  c0.376-0.84,0.992-1.424,1.85-1.75c0.864-0.33,1.723-0.305,2.575,0.075c4.229,1.884,8.13,4.609,11.7,8.175  c7.752,7.793,11.627,17.152,11.625,28.075c0.003,10.926-3.872,20.268-11.625,28.025c-0.033,0.033-0.066,0.066-0.101,0.1  c-7.688,7.648-16.996,11.473-27.925,11.476c-10.881,0-20.214-3.857-28-11.575h-0.024c-7.754-7.758-11.629-17.1-11.625-28.025  c0.001-10.76,3.734-19.943,11.199-27.55c0.128-0.188,0.27-0.364,0.426-0.525C398.938,30.118,402.072,27.776,405.425,26z   M425.375,8.625c0.652,0.656,0.978,1.448,0.975,2.375v45c0.003,0.927-0.322,1.719-0.975,2.375c-0.656,0.652-1.448,0.978-2.375,0.975  c-0.927,0.003-1.719-0.322-2.375-0.975c-0.652-0.656-0.978-1.448-0.975-2.375V11c-0.003-0.927,0.322-1.719,0.975-2.375  c0.656-0.652,1.448-0.977,2.375-0.975C423.927,7.648,424.719,7.973,425.375,8.625z M634.55,177.7c0.501,2.757,0.751,5.656,0.75,8.7  c-0.008,5.056-0.733,9.765-2.175,14.125c0.692-0.669,1.367-1.386,2.025-2.15l0.024-0.025c4.955-5.715,7.729-12.481,8.325-20.3  c0.071-0.871,0.43-1.604,1.075-2.2c0.645-0.597,1.402-0.897,2.274-0.899h11.75V123.85h-82.8v51.101h55.45  c0.807-0.003,1.523,0.256,2.15,0.774C634.023,176.249,634.406,176.907,634.55,177.7z M594.65,164.05  c-0.928,0.002-1.72-0.322-2.375-0.975c-0.652-0.656-0.978-1.448-0.976-2.375c-0.002-0.928,0.323-1.719,0.976-2.375  c0.655-0.652,1.447-0.978,2.375-0.976H642.1c0.928-0.002,1.72,0.323,2.375,0.976c0.652,0.656,0.978,1.447,0.976,2.375  c0.002,0.927-0.323,1.719-0.976,2.375c-0.655,0.652-1.447,0.977-2.375,0.975H594.65z M569.1,120.5  c-0.002-0.927,0.323-1.719,0.976-2.375c0.656-0.652,1.447-0.978,2.375-0.975h89.5c0.927-0.003,1.719,0.322,2.375,0.975  c0.652,0.656,0.977,1.448,0.975,2.375v57.8c0.002,0.928-0.322,1.719-0.975,2.375c-0.656,0.652-1.448,0.978-2.375,0.976H649.85  c-1.168,8.005-4.368,15.029-9.6,21.074l-0.025,0.025c-4.289,4.988-9.139,8.38-14.55,10.175c-0.702,0.237-1.402,0.246-2.1,0.025  c-0.689-0.225-1.248-0.633-1.675-1.226c-0.435-0.599-0.651-1.266-0.65-2c0-0.726,0.217-1.384,0.65-1.975  c4.482-6.032,6.716-13.148,6.699-21.35c-0.001-1.632-0.084-3.215-0.25-4.75H572.45c-0.928,0.002-1.719-0.323-2.375-0.976  c-0.652-0.656-0.978-1.447-0.976-2.375V120.5z M642.1,133.35c0.928-0.002,1.72,0.323,2.375,0.976  c0.652,0.656,0.978,1.447,0.976,2.375c0.002,0.927-0.323,1.719-0.976,2.375c-0.655,0.652-1.447,0.977-2.375,0.975H594.65  c-0.928,0.002-1.72-0.322-2.375-0.975c-0.652-0.656-0.978-1.448-0.976-2.375c-0.002-0.928,0.323-1.719,0.976-2.375  c0.655-0.652,1.447-0.978,2.375-0.976H642.1z M642.1,145.35c0.928-0.002,1.72,0.323,2.375,0.976  c0.652,0.656,0.978,1.447,0.976,2.375c0.002,0.927-0.323,1.719-0.976,2.375c-0.655,0.652-1.447,0.977-2.375,0.975H594.65  c-0.928,0.002-1.72-0.322-2.375-0.975c-0.652-0.656-0.978-1.448-0.976-2.375c-0.002-0.928,0.323-1.719,0.976-2.375  c0.655-0.652,1.447-0.978,2.375-0.976H642.1z M546.725,164.325c0.652,0.656,0.978,1.447,0.976,2.375v87.5  c0.002,0.927-0.323,1.719-0.976,2.375c-0.655,0.652-1.447,0.977-2.375,0.975H456.65c-0.928,0.002-1.72-0.322-2.375-0.975  c-0.652-0.656-0.978-1.448-0.976-2.375v-87.5c-0.002-0.928,0.323-1.719,0.976-2.375c0.655-0.652,1.447-0.978,2.375-0.976h87.699  C545.277,163.348,546.069,163.673,546.725,164.325z M510.9,195.95c0.018-0.921,0.359-1.704,1.024-2.351l15.05-14.699H513  c-0.927,0.002-1.719-0.323-2.375-0.976c-0.652-0.656-0.978-1.447-0.975-2.375c-0.003-0.927,0.322-1.719,0.975-2.375  c0.656-0.652,1.448-0.977,2.375-0.975h22.225c0.05,0,0.083,0,0.101,0c0.066,0.002,0.133,0.011,0.2,0.024  c0.361,0.025,0.703,0.109,1.024,0.25c0.372,0.157,0.714,0.391,1.025,0.7c0.334,0.337,0.584,0.712,0.75,1.125l0.225,1.25v24.15  c0.002,0.927-0.322,1.719-0.975,2.375c-0.656,0.652-1.448,0.977-2.375,0.975c-0.928,0.002-1.719-0.322-2.375-0.975  c-0.652-0.656-0.978-1.448-0.976-2.375v-16.226L516.575,198.4c-0.665,0.646-1.457,0.962-2.375,0.949  c-0.922-0.016-1.705-0.357-2.351-1.024C511.204,197.661,510.887,196.87,510.9,195.95z M600.025,30v0.025  c-5.111-5.115-11.286-7.673-18.525-7.675c-7.089,0.001-13.181,2.468-18.275,7.4c-0.121,0.18-0.254,0.347-0.399,0.5  c-5.019,5.052-7.526,11.152-7.525,18.3c0.002,7.239,2.56,13.414,7.675,18.525h-0.024c5.148,5.115,11.332,7.673,18.55,7.675  c7.173,0.002,13.298-2.498,18.375-7.5l0.075-0.075h-0.025c0.033-0.033,0.066-0.066,0.101-0.1c5.115-5.111,7.673-11.286,7.675-18.525  C607.698,41.332,605.141,35.149,600.025,30z M604.775,25.275V25.3c6.418,6.451,9.626,14.201,9.625,23.25  c0.001,8.004-2.482,14.97-7.45,20.9l27.35,27.175c0.66,0.66,0.993,1.451,1,2.375c0.003,0.916-0.322,1.699-0.975,2.35  c-0.658,0.661-1.449,0.994-2.375,1c-0.915,0.001-1.698-0.323-2.351-0.975L602.2,74.15c-5.879,4.864-12.778,7.298-20.7,7.3  c-9.049,0.001-16.799-3.207-23.25-9.625h-0.025c-6.418-6.423-9.626-14.181-9.625-23.275c0.002-8.84,3.061-16.407,9.176-22.7  c0.135-0.205,0.293-0.396,0.475-0.575c6.451-6.418,14.201-9.626,23.25-9.625C590.595,15.648,598.353,18.857,604.775,25.275z   M619.3-57.2v-19.6h-17.25v19.6H619.3z M622.65-83.5c0.927-0.002,1.719,0.323,2.375,0.975c0.651,0.656,0.977,1.448,0.975,2.375v26.3  c0.002,0.927-0.323,1.719-0.975,2.375c-0.656,0.652-1.448,0.977-2.375,0.975H598.7c-0.928,0.002-1.719-0.323-2.375-0.975  c-0.652-0.656-0.978-1.448-0.976-2.375v-26.3c-0.002-0.927,0.323-1.719,0.976-2.375c0.656-0.652,1.447-0.977,2.375-0.975H622.65z   M508.05-110.5c-0.916,0.002-1.699-0.323-2.35-0.975c-0.661-0.658-0.994-1.449-1-2.375c-0.003-0.916,0.322-1.699,0.975-2.35  c0.659-0.66,1.45-0.993,2.375-1l31.25-0.15c0.025,0,0.051,0,0.075,0c0.885,0.016,1.643,0.341,2.275,0.975l0.05,0.05  c0.627,0.648,0.944,1.423,0.95,2.325c0,0.025,0,0.05,0,0.075l-0.7,34.6c-0.018,0.914-0.359,1.689-1.025,2.325  c-0.673,0.647-1.473,0.963-2.399,0.95c-0.915-0.017-1.689-0.359-2.325-1.025c-0.646-0.673-0.963-1.473-0.95-2.4l0.525-26.275  l-35.301,35.125c-0.66,0.651-1.452,0.977-2.375,0.975c-0.925-0.006-1.717-0.339-2.375-1c-0.652-0.651-0.978-1.435-0.975-2.35  c-0.001-0.924,0.324-1.716,0.975-2.375l35.4-35.225L508.05-110.5z M370.3-27.175c-0.334,0.18-0.643,0.414-0.925,0.7  c-0.813,0.81-1.222,1.784-1.225,2.925c-0.006,1.15,0.395,2.117,1.199,2.9l0.025,0.025c0.333,0.336,0.691,0.611,1.075,0.825  c0.017,0.008,0.033,0.016,0.05,0.025c0.538,0.26,1.139,0.385,1.8,0.375c0.708,0.005,1.358-0.137,1.95-0.425  c0.338-0.217,0.663-0.484,0.975-0.8l0.025-0.025c0.806-0.783,1.205-1.75,1.2-2.9c-0.003-1.105-0.387-2.056-1.15-2.85  c-0.024-0.025-0.05-0.05-0.075-0.075c-0.317-0.285-0.643-0.527-0.975-0.725l-0.025-0.025c-0.586-0.288-1.228-0.43-1.925-0.425  c-0.649-0.004-1.233,0.104-1.75,0.325C370.466-27.269,370.383-27.219,370.3-27.175z M329.7-10.275  c-0.017-0.008-0.033-0.017-0.05-0.025s-0.034-0.017-0.051-0.025c-0.558-0.251-1.157-0.376-1.8-0.375  c-1.139-0.001-2.114,0.391-2.925,1.175L324.85-9.5c-0.796,0.804-1.196,1.771-1.199,2.9c-0.006,1.15,0.395,2.117,1.199,2.9  l0.025,0.025c0.333,0.335,0.691,0.611,1.075,0.825c0.017,0.008,0.033,0.017,0.05,0.025c0.538,0.26,1.139,0.385,1.8,0.375  c0.708,0.005,1.358-0.137,1.95-0.425c0.338-0.218,0.663-0.484,0.975-0.8L330.75-3.7c0.806-0.783,1.205-1.75,1.2-2.9  c-0.004-1.141-0.412-2.116-1.226-2.925l0.075,0.05C330.46-9.794,330.093-10.061,329.7-10.275z M357.1-62  c-0.017-0.017-0.033-0.033-0.05-0.05c-0.806-0.768-1.772-1.151-2.899-1.15c-1.162-0.009-2.137,0.382-2.926,1.175  c-0.813,0.809-1.222,1.784-1.225,2.925c-0.005,1.15,0.395,2.117,1.2,2.9c0.021,0.033,0.046,0.066,0.075,0.1  c0.291,0.308,0.616,0.558,0.975,0.75c0.017,0.008,0.033,0.017,0.05,0.025c0.55,0.249,1.166,0.374,1.851,0.375  c0.707,0.005,1.357-0.137,1.949-0.425c0.338-0.218,0.663-0.484,0.976-0.8c0.793-0.789,1.185-1.764,1.175-2.925  C358.251-60.228,357.868-61.194,357.1-62z M403.55-75.9c0.006-1.151-0.395-2.117-1.2-2.9l-0.024-0.025  c-0.81-0.813-1.784-1.222-2.925-1.225c-1.142,0.003-2.116,0.412-2.926,1.225L396.45-78.8c-0.806,0.783-1.205,1.749-1.2,2.9  c0.003,1.141,0.411,2.116,1.225,2.925c0.207,0.213,0.433,0.405,0.676,0.575c0.026,0.014,0.052,0.03,0.074,0.05  c0.029,0.013,0.055,0.029,0.075,0.05c0.088,0.027,0.172,0.061,0.25,0.1c0.551,0.277,1.168,0.411,1.851,0.4  c0.707,0.004,1.357-0.137,1.949-0.425c0.365-0.22,0.716-0.487,1.051-0.8l-0.075,0.05C403.139-73.784,403.547-74.759,403.55-75.9z   M447.25-114.1c-0.002-0.927,0.323-1.719,0.975-2.375c0.656-0.652,1.448-0.977,2.375-0.975h39.851  c0.927-0.002,1.719,0.323,2.375,0.975c0.652,0.656,0.977,1.448,0.975,2.375c0.002,0.927-0.322,1.719-0.975,2.375  c-0.656,0.652-1.448,0.977-2.375,0.975h-36.5v80.8h81V-64c-0.002-0.927,0.322-1.719,0.975-2.375  c0.656-0.652,1.448-0.977,2.375-0.975c0.928-0.002,1.719,0.323,2.375,0.975c0.652,0.656,0.978,1.448,0.976,2.375v37.4  c0.002,0.927-0.323,1.719-0.976,2.375c-0.656,0.652-1.447,0.977-2.375,0.975h-87.7c-0.927,0.002-1.719-0.323-2.375-0.975  c-0.651-0.656-0.977-1.448-0.975-2.375V-114.1z M320.125-14.275l0.025-0.025c2.117-2.066,4.667-3.099,7.649-3.1  c0.546,0,1.079,0.034,1.601,0.1l17.125-34.1c-0.035-0.033-0.069-0.066-0.101-0.1l0.075,0.1c-2.128-2.084-3.195-4.651-3.2-7.7  c-0.003-2.993,1.056-5.551,3.175-7.675c2.078-2.074,4.637-3.116,7.676-3.125c2.981,0.001,5.532,1.034,7.649,3.1  c0.017,0.016,0.033,0.033,0.05,0.05c2.065,2.118,3.1,4.668,3.101,7.65c-0.01,3.039-1.052,5.597-3.125,7.675L361.8-51.4l8.65,17.2  c0.596-0.099,1.212-0.148,1.85-0.15c0.67,0.002,1.319,0.052,1.95,0.15l17.2-34.3c-1.937-2.072-2.903-4.539-2.9-7.4  c0.005-3.037,1.063-5.596,3.175-7.675l0.025-0.025c2.119-2.103,4.669-3.153,7.65-3.15c2.98-0.003,5.53,1.047,7.649,3.15l0.025,0.025  c2.111,2.08,3.17,4.638,3.175,7.675c0.003,2.993-1.055,5.551-3.175,7.675c-0.028,0.016-0.054,0.032-0.075,0.05  c-0.813,0.77-1.671,1.403-2.575,1.9c-0.06,0.032-0.117,0.065-0.175,0.1c-1.475,0.711-3.091,1.07-4.85,1.075  c-0.714-0.004-1.397-0.063-2.051-0.175l-17.175,34.25c1.986,2.083,2.979,4.575,2.976,7.475c-0.006,3.037-1.063,5.595-3.176,7.675  l-0.024,0.025c-0.828,0.82-1.703,1.478-2.625,1.975c-0.06,0.032-0.118,0.065-0.175,0.1c-1.475,0.712-3.092,1.07-4.851,1.075  c-1.784-0.01-3.4-0.377-4.85-1.1c-0.014-0.01-0.031-0.019-0.05-0.025c-0.987-0.511-1.904-1.187-2.75-2.025l-0.025-0.025  c-2.111-2.08-3.17-4.638-3.175-7.675c-0.004-2.938,1.014-5.455,3.05-7.55l-8.7-17.275c-0.534,0.082-1.084,0.124-1.649,0.125  c-0.569,0-1.12-0.033-1.65-0.1l-17.075,34.025c0.011,0.021,0.027,0.038,0.05,0.05c2.12,2.124,3.179,4.682,3.176,7.675  c-0.006,3.037-1.063,5.596-3.176,7.675L335.45,1.1c-0.828,0.819-1.703,1.478-2.625,1.975c-0.06,0.032-0.118,0.065-0.175,0.1  c-1.475,0.712-3.092,1.07-4.851,1.075c-1.784-0.01-3.4-0.377-4.85-1.1c-0.014-0.01-0.031-0.019-0.05-0.025  c-0.987-0.512-1.904-1.187-2.75-2.025l-0.025-0.025c-2.111-2.08-3.17-4.638-3.175-7.675  C316.946-9.593,318.005-12.151,320.125-14.275z M224.3-17.55h-43.1V61.85h77.2V8.05h-29.2c-3.562,0-5.195-1.5-4.9-4.5V-17.55z   M174.5-19.75c-0.295-3,1.338-4.5,4.9-4.5h49.574c0.042-0.001,0.084-0.001,0.125,0c0.034,0,0.067,0,0.101,0  c0.743,0.001,1.418,0.226,2.024,0.675l32.551,24.45c0.416,0.314,0.74,0.706,0.975,1.175c0.235,0.473,0.352,0.973,0.35,1.5V64  c0.229,3.033-1.388,4.55-4.85,4.55H179.4c-3.525,0-5.159-1.517-4.9-4.55V-19.75z M210.375-151.025  c-2.19-2.195-3.282-4.82-3.275-7.875c-0.007-3.055,1.085-5.68,3.275-7.875c2.189-2.186,4.831-3.277,7.925-3.275  c3.056-0.008,5.681,1.084,7.875,3.275c2.191,2.195,3.282,4.82,3.275,7.875c0.007,3.055-1.084,5.68-3.275,7.875  c-2.194,2.19-4.819,3.282-7.875,3.275C215.206-147.748,212.564-148.839,210.375-151.025z M218.3-163.35  c-1.239,0.002-2.298,0.444-3.175,1.325c-0.876,0.872-1.317,1.914-1.325,3.125c0.008,1.211,0.449,2.253,1.325,3.125  c0.877,0.881,1.936,1.323,3.175,1.325c1.212-0.007,2.253-0.449,3.125-1.325c0.876-0.872,1.318-1.914,1.325-3.125  c-0.007-1.211-0.449-2.253-1.325-3.125C220.553-162.901,219.512-163.343,218.3-163.35z M259.75-125.2h-43.1v79.4h77.199v-53.8  H264.65c-3.563,0-5.195-1.5-4.9-4.5V-125.2z M266.45-123.025v16.725h22.274L266.45-123.025z"></path><g><path fill-rule="evenodd" clip-rule="evenodd" fill="none" stroke="#000000" stroke-width="6.7" stroke-linecap="round" stroke-linejoin="round" stroke-miterlimit="3" d="   M-591.1,23.45c1.667-0.133,3.133,0.333,4.4,1.4c0.134,0.1,0.233,0.183,0.3,0.25c1.1,1.033,1.683,2.3,1.75,3.8   c0.167,1.7-0.3,3.167-1.4,4.4c-1.034,1.267-2.367,1.95-4,2.05c-1.7,0.2-3.15-0.233-4.35-1.3c-1.267-1.066-1.983-2.417-2.15-4.05   c-0.1-0.767-0.05-1.483,0.15-2.15c0.233-0.767,0.633-1.517,1.2-2.25C-594.167,24.333-592.8,23.617-591.1,23.45z M-541.65,22.05   l-7.1,40.4L-610.8,51.7l-0.75-0.15l0.25-1.35l6.85-39.2L-541.65,22.05z M-576.45,40.45l6.15-3.6l0.05,0.15l1.5-5.7l-0.1-0.15   l-6,3.7 M-566.2,42.85l-4.05-5.85l-2.6,12.75 M-567.75,27.1l-1,4.2l3.5,5.95 M-555.4,52.35l-8.85-1.75 M-610.8,51.7l-0.5-1.5    M-581.8,47.65l-19.95-4 M-558.95,70.25l-43.1,9.55l-3.75-17.7 M-572.5,29.05l4.9-2.95l3,4.9"></path></g><g><path fill-rule="evenodd" clip-rule="evenodd" fill="none" stroke="#000000" stroke-width="6.7" stroke-linecap="round" stroke-linejoin="round" stroke-miterlimit="3" d="   M-542.95-54.3h-9.5c-0.366-1.7-0.866-3.317-1.5-4.85l6.4-6.4c1.533-1.567,1.533-3.117,0-4.65l-8-8   c-1.434-1.433-2.833-1.566-4.2-0.4c-0.167,0.133-0.316,0.267-0.45,0.4l-5.55,5.6c-1.8-1.133-3.7-2.033-5.7-2.7v-7.55   c0-0.367,0-0.7,0-1c-0.333-1.533-1.417-2.3-3.25-2.3H-586c-1.767,0-2.816,0.7-3.15,2.1c-0.067,0.367-0.1,0.767-0.1,1.2v7.35   c-2.1,0.633-4.083,1.5-5.95,2.6l-5.3-5.3c-0.233-0.267-0.483-0.466-0.75-0.6c-1.3-0.934-2.617-0.75-3.95,0.55l-7.95,8   c-1.467,1.467-1.517,2.95-0.15,4.45c0.033,0.066,0.083,0.133,0.15,0.2l5.95,5.95c-0.8,1.667-1.383,3.433-1.75,5.3h-8.8   c-2.2,0-3.3,1.083-3.3,3.25v11.3c0,2.2,1.1,3.3,3.3,3.3h10.25c0.533,1.267,1.167,2.517,1.9,3.75l-7.55,7.45   c-1.534,1.566-1.534,3.117,0,4.65l7.95,8c1.567,1.533,3.134,1.533,4.7,0l7.95-7.95c0.167-0.133,0.3-0.283,0.4-0.45   c0.966,0.433,1.95,0.8,2.95,1.1c-0.033,0.2-0.05,0.417-0.05,0.65V-8c0,2.2,1.083,3.3,3.25,3.3h11.3c2.167,0,3.25-1.1,3.25-3.3   v-11.3c0-0.333,0-0.633,0-0.9c0.9-0.333,1.8-0.683,2.7-1.05c0.167,0.2,0.35,0.417,0.55,0.65l8,7.95c1.534,1.533,3.067,1.533,4.6,0   l8.05-7.95c1.533-1.566,1.533-3.117,0-4.65l-8-8c0.6-1.033,1.15-2.117,1.65-3.25h10.95c2.2,0,3.3-1.083,3.3-3.25v-11.3   C-539.65-53.217-540.75-54.3-542.95-54.3z M-567.65-60.35c3.5,3.533,5.25,7.783,5.25,12.75c0,4.934-1.75,9.167-5.25,12.7   c-3.5,3.5-7.733,5.25-12.7,5.25c-4.933,0-9.183-1.75-12.75-5.25c-3.466-3.533-5.2-7.767-5.2-12.7c0-4.967,1.733-9.217,5.2-12.75   c3.567-3.5,7.817-5.25,12.75-5.25C-575.383-65.6-571.15-63.85-567.65-60.35z"></path></g></svg>